<svg width="13" height="17" viewBox="0 0 13 17" fill="none" xmlns="http://www.w3.org/2000/svg">
<g clip-path="url(#clip0_233_772)">
<path d="M6.06418 0C2.72084 0 0 2.64153 0 5.88741C0 6.96864 0.310113 8.03009 0.896385 8.95968C0.903175 8.97506 0.91223 8.99264 0.921284 9.00802L5.6771 16.7348C5.73822 16.8337 5.84687 16.8953 5.96458 16.8953H5.96684C6.08455 16.8953 6.1932 16.8359 6.25432 16.7392L11.2048 9.01022C11.2161 8.99264 11.2252 8.97506 11.232 8.95748C11.8182 8.03009 12.1284 6.97084 12.1284 5.88741C12.1284 2.64153 9.40751 0 6.06418 0ZM6.06418 8.81244C4.35516 8.81244 2.96531 7.4631 2.96531 5.8039C2.96531 4.1447 4.35516 2.79537 6.06418 2.79537C7.77319 2.79537 9.16304 4.1447 9.16304 5.8039C9.16304 7.4631 7.77319 8.81244 6.06418 8.81244Z" fill="white"/>
</g>
<defs>
<clipPath id="clip0_233_772">
<rect width="12.1284" height="16.8931" fill="white"/>
</clipPath>
</defs>
</svg>
