<svg width="32" height="22" viewBox="0 0 32 22" fill="none" xmlns="http://www.w3.org/2000/svg">
<path d="M23.3758 1.03615L23.3547 0.887654C24.0252 0.792262 24.7465 0.883016 25.3705 1.10438C25.9918 1.32476 26.5356 1.68163 26.8311 2.13547C26.8547 2.17164 26.8862 2.23946 26.9214 2.32029C26.9588 2.40604 27.0058 2.51978 27.0611 2.65761C27.1718 2.93346 27.3169 3.30913 27.4861 3.75722C27.8246 4.65358 28.2605 5.84212 28.7121 7.10663C29.6166 9.63875 30.452 11.9236 30.5707 12.1917C31.6954 14.7333 31.1603 17.4409 29.1579 19.324C26.8977 21.4495 23.4772 21.7507 20.8187 20.0629C19.8253 19.4322 19.0205 18.5634 18.5471 17.6037L18.6817 17.5374L18.5471 17.6037C18.3854 17.2758 18.2167 16.8314 18.0885 16.4248C18.0243 16.221 17.9696 16.0247 17.9308 15.8552C17.8927 15.6889 17.8674 15.5382 17.8674 15.4302C17.8674 15.4294 17.8678 15.4277 17.864 15.422C17.859 15.4145 17.8465 15.4002 17.8182 15.3815C17.7597 15.3427 17.6583 15.3003 17.4984 15.2568C17.2047 15.1768 16.5669 15.1331 15.9229 15.1328C15.6043 15.1326 15.2901 15.1431 15.0241 15.164C14.7539 15.1853 14.5463 15.2164 14.4333 15.2532C14.2458 15.3142 14.1815 15.3503 14.1449 15.3942C14.1071 15.4395 14.0808 15.5148 14.0475 15.7192C14.0475 15.7192 14.0475 15.7192 14.0475 15.7192L13.8994 15.6951C13.084 20.7103 6.68719 22.7603 2.91704 19.2147C1.52851 17.909 0.91053 16.3932 1.0104 14.5381C1.06593 13.5066 1.12235 13.3164 2.53695 9.39656C3.34486 7.15784 4.247 4.65572 4.54177 3.83639L23.3758 1.03615ZM23.3758 1.03615L23.3547 0.887656C22.9041 0.951809 22.5499 1.13152 22.3799 1.39197C22.2928 1.52544 22.2559 1.67876 22.2838 1.83719C22.3115 1.99367 22.3998 2.14091 22.5372 2.27139C22.6487 2.37716 22.7558 2.44654 22.93 2.47298C23.0868 2.49679 23.2966 2.4852 23.6108 2.45736L23.5976 2.30795L23.6108 2.45736C23.9936 2.42343 24.3677 2.45337 24.6843 2.53334C25.0008 2.61327 25.2462 2.73959 25.3905 2.88839C25.3917 2.89023 25.3939 2.89377 25.3972 2.89954C25.4048 2.91281 25.4149 2.93211 25.4277 2.95815C25.453 3.01003 25.4858 3.0825 25.5252 3.17425C25.6038 3.35738 25.7067 3.61151 25.8267 3.91871C26.0665 4.53279 26.3732 5.35499 26.6887 6.23683C27.1789 7.60706 27.6153 8.82284 27.7992 9.33116C27.7265 9.30046 27.6409 9.26057 27.5469 9.21254C25.601 8.2182 22.8261 8.34683 20.9206 9.51571L20.9991 9.64357L20.9206 9.51572C19.5656 10.3471 18.3795 11.9149 18.074 13.2974L18.074 13.2974C18.0444 13.4312 18.0203 13.5317 17.9978 13.6074C17.9748 13.6852 17.9566 13.7253 17.9433 13.7456C17.942 13.7475 17.9409 13.7491 17.94 13.7504C17.9327 13.7501 17.9171 13.7486 17.8882 13.7418L17.8882 13.7418C17.4266 13.6331 16.7001 13.5784 15.9762 13.5749C15.284 13.5716 14.5773 13.6151 14.0881 13.7094C14.0759 13.6907 14.0609 13.6649 14.044 13.6314C13.9925 13.5297 13.9343 13.3808 13.8838 13.2102C13.5446 12.0633 13.0602 11.2878 12.1396 10.4122C10.7537 9.09387 9.38862 8.55031 7.46576 8.55031C6.30643 8.55031 5.29757 8.76682 4.43515 9.2075C4.32633 9.2631 4.22517 9.31116 4.13965 9.34874C4.14051 9.34621 4.14137 9.34367 4.14223 9.34111C4.20017 9.17019 4.28416 8.92715 4.38801 8.62973C4.59566 8.03502 4.8823 7.22412 5.19775 6.34064L5.05648 6.2902L5.19775 6.34064C5.59657 5.22363 5.90403 4.40058 6.13593 3.83215C6.25195 3.54778 6.34821 3.32923 6.42686 3.17033C6.50826 3.00587 6.56346 2.92094 6.59443 2.88894C6.93578 2.5364 7.43017 2.38748 8.24387 2.44948L8.24389 2.44948C8.61596 2.47779 8.89015 2.47598 9.09879 2.41511C9.32277 2.34976 9.46193 2.21963 9.56995 2.02817L9.56997 2.02814C9.69471 1.80692 9.68122 1.56739 9.55758 1.3683C9.43705 1.17423 9.21946 1.02857 8.94826 0.957095C8.35736 0.801335 7.44649 0.817534 6.85838 0.994143L23.3758 1.03615ZM10.3354 10.975C10.788 11.2736 11.1864 11.6096 11.4041 11.8911C12.0929 12.7818 12.3633 13.4792 12.4252 14.5107L12.4252 14.5107C12.4945 15.6636 12.2708 16.5285 11.6913 17.3794L11.8153 17.4638L11.6913 17.3794C9.93964 19.9518 6.22286 20.3406 3.94805 18.186C1.05072 15.4416 2.55772 10.864 6.64581 10.1317C7.26711 10.0205 8.29824 10.0961 9.00237 10.3085C9.39423 10.4267 9.88384 10.677 10.3354 10.975ZM20.2808 17.3794L20.2808 17.3794C19.7013 16.5285 19.4776 15.6636 19.547 14.5107L19.547 14.5107C19.6089 13.4792 19.8792 12.7818 20.568 11.891C20.8804 11.4872 21.4051 11.0788 22.0065 10.7496C22.6068 10.4208 23.2698 10.1786 23.8501 10.0973L23.8293 9.94875L23.8501 10.0973C24.114 10.0603 24.5342 10.0701 24.9727 10.1164C25.41 10.1626 25.8489 10.2433 26.1487 10.3412C28.9349 11.2511 30.2794 14.2829 29.0515 16.8533C28.8547 17.2651 28.4942 17.7296 28.0697 18.1417C27.6453 18.5538 27.1681 18.9027 26.746 19.0914C24.3744 20.1512 21.6781 19.4314 20.2808 17.3794Z" fill="white" stroke="white" stroke-width="0.3"/>
</svg>
