<svg width="65" height="65" viewBox="0 0 65 65" fill="none" xmlns="http://www.w3.org/2000/svg">
<path d="M28.6029 55.0064V50.9511C28.6029 50.5351 28.7069 50.1192 28.9149 49.7033C29.0189 49.5993 29.0189 49.3913 28.9149 49.2874C28.7069 48.8714 28.6029 48.4555 28.6029 48.0396C28.6029 47.6237 28.7069 47.2077 28.9149 46.7918C29.0189 46.6878 29.0189 46.4799 28.9149 46.3759C28.7069 45.96 28.6029 45.544 28.6029 45.1281C28.6029 44.6082 28.8109 43.9843 29.123 43.5684C29.227 43.3604 29.227 43.2564 29.123 43.0485C28.8109 42.2166 28.6029 41.3848 28.6029 40.4489C28.6029 40.241 28.6029 40.033 28.6029 39.825C28.6029 39.5131 28.4989 39.2012 28.6029 38.7852V38.6812L28.4989 38.5773C27.6668 37.4335 27.1467 35.6658 27.1467 33.4822C27.1467 32.5463 27.2508 31.6105 27.5628 30.6747V30.5707L27.0427 28.907L26.8347 29.011C25.7946 29.4269 24.5465 29.6349 23.4024 29.6349C23.0904 29.6349 22.8823 29.6349 22.5703 29.6349H22.4663L22.3623 29.7388C21.7382 30.2588 20.6981 30.5707 19.554 30.5707C18.8259 30.5707 18.2018 30.4667 17.4738 30.2588C15.1855 29.6349 13.4174 28.0751 13.4174 26.5154V26.4114L13.3134 26.3075C13.0013 26.0995 12.7933 25.7876 12.4813 25.5796C11.6492 24.7477 11.1292 23.6039 11.1292 22.3562V20.2765C11.1292 19.1327 11.5452 17.9889 12.3773 17.1571C13.2094 16.3252 14.4575 15.8053 15.8096 15.8053C16.7457 15.8053 17.7858 16.1173 18.5139 16.5332L23.0903 19.6526C23.2984 19.7566 23.5064 19.8606 23.8184 19.9646L24.1305 20.0686V19.7566C24.1305 19.2367 24.3385 18.8208 24.7545 18.5088C28.2909 15.4934 30.4751 14.2456 32.5553 14.2456C34.6355 14.2456 36.8197 15.3894 40.3561 18.5088C40.7721 18.8208 40.9801 19.2367 40.9801 19.7566V20.0686L41.2922 19.9646C41.5002 19.8606 41.8122 19.7566 42.0202 19.6526L46.8047 16.4292C47.5328 15.9093 48.4689 15.7013 49.405 15.7013C49.821 15.7013 50.2371 15.7013 50.5491 15.8053C51.7972 16.1173 52.9413 16.9491 53.5654 18.1969C53.8774 18.8208 54.0855 19.5487 54.0855 20.3805V22.3562C54.0855 23.5 53.6694 24.6437 52.8373 25.4756C52.4213 25.8915 51.9012 26.4114 51.3812 26.7234H51.2772V26.8274C50.8611 27.9712 49.717 29.115 48.3649 29.9468C47.2208 30.5707 46.0766 30.8826 45.0365 30.8826C43.8924 30.8826 42.9563 30.4667 42.5403 29.7388L42.4363 29.6349H42.3323C42.2283 29.6349 42.0202 29.6349 41.8122 29.6349C40.6681 29.6349 39.524 29.4269 38.3799 29.011L38.1719 28.907L37.6518 30.5707V30.6747C37.9638 31.5065 38.0678 32.4424 38.0678 33.4822C38.0678 35.6658 37.6518 37.4335 36.7157 38.5773L36.8197 38.7852V38.8892C36.9237 39.2012 36.8197 39.5131 36.8197 39.825C36.8197 40.033 36.8197 40.241 36.8197 40.4489C36.8197 41.3848 36.6117 42.3206 36.2997 43.0485C36.1957 43.1525 36.1957 43.3604 36.2997 43.5684C36.6117 44.0883 36.8197 44.6082 36.8197 45.1281C36.8197 45.544 36.7157 45.96 36.5077 46.3759C36.4037 46.4799 36.4037 46.6878 36.5077 46.7918C36.7157 47.2077 36.8197 47.6237 36.8197 48.0396C36.8197 48.4555 36.7157 48.8714 36.5077 49.2874C36.4037 49.3913 36.4037 49.5993 36.5077 49.7033C36.7157 50.1192 36.8197 50.5351 36.8197 50.9511V55.0064H35.7796V50.9511C35.7796 50.6391 35.6756 50.4312 35.5716 50.1192C35.3636 49.7033 35.3636 49.2874 35.5716 48.8714C35.6756 48.5595 35.7796 48.3515 35.7796 48.0396C35.7796 47.7276 35.6756 47.5197 35.5716 47.2077C35.3636 46.7918 35.3636 46.3759 35.5716 45.9599C35.6756 45.648 35.7796 45.4401 35.7796 45.1281C35.7796 44.7122 35.6756 44.4002 35.4676 44.0883C35.1556 43.6724 35.1556 43.1525 35.3636 42.7365C35.6756 42.1126 35.8836 41.2808 35.8836 40.5529C35.8836 40.345 35.8836 40.137 35.8836 39.929L35.9876 39.4091L35.1555 39.825C35.0515 39.825 35.0515 39.825 34.9475 39.825C34.7395 39.825 34.6355 39.7211 34.5315 39.5131C34.4275 39.3051 34.5315 38.9932 34.7395 38.8892L36.0917 38.2653C36.9237 37.3295 37.3398 35.6658 37.3398 33.5862C37.3398 32.6503 37.1318 31.7145 36.8197 30.8826L36.7157 30.7787L37.6518 27.8672L38.2759 28.0751C39.42 28.595 40.6681 28.907 41.9162 28.907C42.2283 28.907 42.5403 28.907 42.7483 28.907H43.1644L43.2684 29.2189C43.2684 29.3229 43.2684 29.3229 43.3724 29.4269C43.6844 29.9468 44.3085 30.1548 45.1406 30.1548C46.0766 30.1548 47.0127 29.8428 48.0528 29.3229C49.301 28.595 50.3411 27.5552 50.6531 26.5154V26.4114L50.7571 26.3075C51.2772 25.8915 51.7972 25.4756 52.2133 24.9557C52.8373 24.3318 53.1494 23.396 53.1494 22.4601V20.4845C53.1494 19.8606 53.0453 19.2367 52.7333 18.7168C52.2133 17.781 51.3812 17.0531 50.3411 16.8451C50.029 16.7412 49.717 16.7412 49.405 16.7412C48.6769 16.7412 47.9488 16.9491 47.3248 17.365L42.5403 20.5885C42.0202 21.0044 41.2922 21.2124 40.6681 21.2124C40.5641 21.2124 40.4601 21.2124 40.2521 21.2124L39.732 21.1084L40.1481 19.8606V19.7566C40.1481 19.5487 40.044 19.4447 39.836 19.3407C36.8197 16.8451 34.7395 15.2854 32.5553 15.2854C30.4751 15.2854 28.2909 16.7412 25.3786 19.3407C25.2746 19.4447 25.1706 19.6526 25.0665 19.7566V19.8606L25.4826 21.1084L24.9625 21.2124C24.8585 21.2124 24.7545 21.2124 24.5465 21.2124C23.8184 21.2124 23.1943 21.0044 22.6743 20.5885L18.0978 17.469C17.4738 17.0531 16.7457 16.8451 15.9136 16.8451C14.7695 16.8451 13.8334 17.2611 13.1053 17.9889C12.4813 18.7168 12.1693 19.5487 12.1693 20.4845V22.5641C12.1693 23.4999 12.5853 24.4358 13.2094 25.1637C13.5214 25.4756 13.8334 25.7876 14.1454 26.0995L14.3535 26.3075V26.6194C14.2495 27.6592 15.4976 29.115 17.7858 29.7388C18.4099 29.9468 19.0339 30.0508 19.658 30.0508C20.6981 30.0508 21.6342 29.7388 22.0502 29.3229L22.2583 29.115H22.4663C22.8823 29.115 23.1944 29.2189 23.5064 29.2189C24.7545 29.2189 26.0026 28.907 27.1467 28.3871L27.7708 28.0751L28.7069 30.9866L28.6029 31.0906C28.2909 31.9225 28.0829 32.8583 28.0829 33.7941C28.0829 35.8737 28.4989 37.4335 29.331 38.4733L30.6831 39.2012C30.7871 39.3051 30.8911 39.3051 30.8911 39.5131C30.8911 39.7211 30.8911 39.7211 30.8911 39.825C30.7871 40.033 30.6831 40.137 30.4751 40.137C30.3711 40.137 30.3711 40.137 30.2671 40.137L29.435 39.7211V40.137C29.435 40.345 29.435 40.5529 29.435 40.7609C29.435 41.5927 29.643 42.3206 29.955 42.9445C30.163 43.3604 30.1631 43.8803 29.851 44.2963C29.643 44.6082 29.539 45.0241 29.539 45.3361C29.539 45.648 29.643 45.856 29.747 46.1679C29.955 46.5839 29.955 46.9998 29.747 47.4157C29.643 47.7276 29.539 47.9356 29.539 48.2476C29.539 48.5595 29.643 48.7674 29.747 49.0794C29.955 49.4953 29.955 49.9113 29.747 50.3272C29.643 50.6391 29.539 50.8471 29.539 51.159V55.2143H28.6029V55.0064Z" fill="white"/>
<path d="M29.955 55.4223H28.2909V50.9511C28.2909 50.4312 28.3949 50.0152 28.6029 49.5993V49.4953C28.3949 49.0794 28.2909 48.5595 28.2909 48.1436C28.2909 47.6237 28.3949 47.2077 28.6029 46.7918V46.6878C28.3949 46.2719 28.2909 45.752 28.2909 45.3361C28.2909 44.7122 28.4989 44.0883 28.8109 43.5684C28.8109 43.4644 28.8109 43.4644 28.8109 43.4644C28.3949 42.6325 28.1869 41.6967 28.1869 40.6569C28.1869 40.4489 28.1869 40.345 28.1869 40.137C28.1869 39.8251 28.0829 39.4091 28.1869 39.0972C27.2508 37.8494 26.8347 36.0817 26.8347 33.7941C26.8347 32.7543 27.0428 31.8185 27.2508 30.9866L26.9387 29.8428C25.8986 30.2587 24.6505 30.4667 23.5064 30.4667C23.1944 30.4667 22.9863 30.4667 22.6743 30.4667C21.5302 31.4025 19.45 31.6105 17.4738 31.0906C15.0815 30.3627 13.2094 28.699 13.1054 27.0353C12.7933 26.8274 12.5853 26.5154 12.3773 26.3075C11.4412 25.3716 10.9211 24.1238 10.9211 22.8761V20.7964C10.9211 19.5487 11.4412 18.3009 12.2733 17.365C13.1053 16.4292 14.5615 15.8053 16.0176 15.8053C17.0578 15.8053 18.0979 16.1173 18.9299 16.6372L23.5064 19.7566C23.6104 19.8606 23.8184 19.9646 23.9224 19.9646C24.0265 19.4447 24.2345 18.9248 24.6505 18.6128C28.1869 15.4934 30.4751 14.2456 32.6593 14.2456C34.8435 14.2456 37.1318 15.4934 40.7721 18.6128C41.1882 18.9248 41.3962 19.4447 41.5002 19.9646C41.7082 19.8606 41.8122 19.8606 41.9162 19.7566L46.7007 16.5332C47.8448 15.7013 49.405 15.4934 50.7571 15.8053C52.1093 16.1173 53.2534 17.0531 53.9814 18.4049C54.2935 19.1327 54.5015 19.8606 54.5015 20.7964V22.7721C54.5015 24.0199 54.0855 25.2676 53.1494 26.2035C52.7333 26.7234 52.2133 27.1393 51.6932 27.5552C51.1732 28.803 50.0291 29.9468 48.5729 30.7787C47.4288 31.4026 46.1807 31.8185 45.0365 31.8185C43.7884 31.8185 42.7483 31.4026 42.2283 30.5707C40.8761 30.6747 39.628 30.4667 38.3799 29.9468L38.0679 31.0906C38.3799 32.0264 38.5879 32.9623 38.5879 33.8981C38.5879 36.1857 38.1719 37.9534 37.2358 39.2012C37.3398 39.6171 37.2358 39.929 37.2358 40.241C37.2358 40.4489 37.2358 40.6569 37.2358 40.8649C37.2358 41.8007 37.0278 42.8405 36.6117 43.6724V43.7763C37.0278 44.2963 37.1318 44.9201 37.1318 45.544C37.1318 46.0639 37.0278 46.4799 36.8197 46.8958V46.9998C37.0278 47.4157 37.1318 47.9356 37.1318 48.3515C37.1318 48.8714 37.0278 49.2874 36.8197 49.7033V49.8073C37.0278 50.2232 37.1318 50.7431 37.1318 51.159V55.6302H35.4676V51.159C35.4676 50.9511 35.4676 50.7431 35.3636 50.5351C35.1556 50.0152 35.1556 49.4953 35.3636 48.9754C35.4676 48.7675 35.5716 48.5595 35.5716 48.3515C35.5716 48.1436 35.5716 47.9356 35.4676 47.7276C35.2596 47.2077 35.2596 46.6878 35.4676 46.1679C35.5716 45.96 35.6756 45.752 35.6756 45.544C35.6756 45.2321 35.5716 44.9201 35.3636 44.7122C35.0516 44.1923 34.9475 43.5684 35.1556 42.9445C35.4676 42.3206 35.5716 41.5927 35.5716 40.8649C35.5716 40.6569 35.5716 40.5529 35.5716 40.4489L35.3636 40.5529C34.9475 40.7609 34.4275 40.5529 34.2195 40.137C34.0114 39.7211 34.2195 39.2012 34.6355 38.9932L35.8836 38.3693C36.6117 37.4335 37.0277 35.9777 37.0277 34.0021C37.0277 33.1702 36.9237 32.2344 36.6117 31.5065L36.5077 31.1946L37.5478 27.7632L38.4839 28.1791C39.836 28.907 41.2922 29.115 42.7483 28.907L43.4764 28.803L43.6844 29.4269C43.6844 29.4269 43.6844 29.5309 43.7884 29.5309C43.9964 29.8428 44.5165 30.0508 45.2446 30.0508C46.0767 30.0508 47.0127 29.7388 47.9488 29.2189C49.197 28.5951 50.0291 27.5552 50.3411 26.7234L50.4451 26.4114L50.6531 26.2035C51.1732 25.7875 51.6932 25.3716 52.1093 24.9557C52.6293 24.3318 52.9413 23.6039 52.9413 22.7721V20.7964C52.9413 20.1725 52.8373 19.6526 52.6293 19.2367C52.2133 18.4049 51.3812 17.781 50.4451 17.469C49.509 17.2611 48.5729 17.365 47.7408 17.885L42.9563 21.1084C42.2283 21.6283 41.2922 21.8363 40.4601 21.7323L39.42 21.6283L39.94 20.0686C39.94 19.9646 39.836 19.8606 39.836 19.8606C36.9237 17.3651 34.8435 15.9093 32.8673 15.9093C30.8911 15.9093 28.8109 17.3651 25.8986 19.8606C25.7946 19.9646 25.7946 19.9646 25.7946 20.0686L26.3147 21.6283L25.2746 21.7323C24.3385 21.8363 23.5064 21.6283 22.7783 21.1084L18.2019 17.9889C17.6818 17.677 16.9537 17.469 16.2257 17.469C15.1856 17.469 14.3535 17.781 13.7294 18.4049C13.2094 19.0288 12.8973 19.8606 12.8973 20.6925V22.7721C12.8973 23.6039 13.2094 24.4358 13.8334 25.0597C14.1455 25.3716 14.4575 25.6836 14.7695 25.8915L15.1856 26.2035L15.0816 26.7234C14.9775 27.4512 16.0177 28.803 18.2019 29.4269C19.762 29.8428 21.5302 29.6349 22.0503 29.011L22.3623 28.699L22.7783 28.803C23.1944 28.803 23.5064 28.907 23.8184 28.907C24.9625 28.907 26.2107 28.595 27.2508 28.0751L28.2909 27.6592L29.331 31.0906L29.227 31.4025C28.9149 32.2344 28.8109 33.0663 28.8109 33.8981C28.8109 35.8738 29.227 37.3295 29.955 38.2653L31.2032 38.8892C31.4112 38.9932 31.5152 39.2012 31.6192 39.4091C31.7232 39.6171 31.7232 39.825 31.6192 40.033C31.4112 40.4489 30.8911 40.6569 30.4751 40.4489L30.2671 40.345C30.2671 40.5529 30.2671 40.6569 30.2671 40.7609C30.2671 41.4887 30.3711 42.2166 30.6831 42.8405C30.9952 43.3604 30.8911 44.0883 30.5791 44.6082C30.3711 44.9201 30.2671 45.1281 30.2671 45.44C30.2671 45.648 30.3711 45.856 30.4751 46.0639C30.6831 46.5838 30.6831 47.1038 30.4751 47.6237C30.3711 47.8316 30.2671 48.0396 30.2671 48.2476C30.2671 48.4555 30.2671 48.6635 30.3711 48.8714C30.5791 49.3913 30.5791 49.9113 30.3711 50.4312C30.2671 50.6391 30.1631 50.8471 30.1631 51.0551V55.4223H29.955ZM29.227 54.5904V50.8471C29.227 50.5351 29.331 50.2232 29.435 49.9113C29.539 49.5993 29.539 49.2874 29.435 48.9754C29.331 48.6635 29.227 48.3515 29.227 48.0396C29.227 47.7276 29.331 47.4157 29.435 47.1038C29.539 46.7918 29.539 46.4799 29.435 46.1679C29.331 45.856 29.227 45.544 29.227 45.2321C29.227 44.8162 29.331 44.2963 29.643 43.9843C29.851 43.6724 29.851 43.2564 29.747 42.9445C29.435 42.2166 29.227 41.3848 29.227 40.5529C29.227 40.345 29.227 40.241 29.227 39.929L29.123 38.7852L30.5791 39.5131H30.6831L30.7871 39.0972L30.5791 39.4091L29.123 38.6812C28.1869 37.6414 27.7708 35.8737 27.7708 33.7941C27.7708 32.8583 27.9788 31.8185 28.2909 30.9866L27.4588 28.3871L27.2508 28.4911C26.1067 29.011 24.7545 29.3229 23.5064 29.3229C23.1944 29.3229 22.7783 29.3229 22.3623 29.2189C21.5302 30.0508 19.658 30.3627 17.6818 29.8428C15.1856 29.1149 13.8334 27.4513 14.0415 26.3075C13.6254 25.9955 13.3134 25.6836 13.0014 25.3716C12.2733 24.6438 11.8572 23.6039 11.8572 22.5641V20.4845C11.8572 19.4447 12.2733 18.5088 12.8973 17.677C13.6254 16.9491 14.7695 16.4292 15.9136 16.4292C16.7457 16.4292 17.6818 16.6372 18.3059 17.1571L22.8823 20.2765C23.5064 20.6925 24.2345 20.9004 24.9625 20.7964H25.0665L24.7545 19.9646V19.8606C24.8585 19.5487 24.9625 19.3407 25.1706 19.1327C28.1869 16.5332 30.3711 15.0775 32.5553 15.0775C34.8435 15.0775 37.0278 16.5332 40.0441 19.2367C40.2521 19.4447 40.3561 19.6526 40.4601 19.9646V20.0686V20.1726L40.2521 20.9004H40.3561C41.0842 21.0044 41.8122 20.7964 42.4363 20.3805L47.2208 17.1571C48.1569 16.5332 49.405 16.3252 50.5491 16.6372C51.6932 16.9491 52.6293 17.677 53.1494 18.7168C53.4614 19.2367 53.5654 19.9646 53.5654 20.5885V22.5641C53.5654 23.6039 53.1494 24.5398 52.5253 25.2676C52.1093 25.7875 51.5892 26.2035 50.9652 26.6194C50.6531 27.6592 49.613 28.803 48.2609 29.6349C47.2208 30.2587 46.1807 30.5707 45.1406 30.5707C44.1005 30.5707 43.3724 30.2587 43.0604 29.6349C43.0604 29.5309 42.9563 29.4269 42.9563 29.4269V29.3229H42.8523C41.1882 29.5309 39.628 29.2189 38.1719 28.4911L37.8598 28.3871L37.1318 30.7787C37.4438 31.7145 37.6518 32.6503 37.6518 33.5862C37.6518 35.7698 37.2358 37.4335 36.2997 38.4733L36.1957 38.5773L34.8435 39.2012C34.8435 39.2012 34.7395 39.3051 34.8435 39.3051L34.9475 39.4091L36.5077 38.6812L36.4037 39.825C36.4037 40.033 36.4037 40.241 36.4037 40.4489C36.4037 41.2808 36.1957 42.1126 35.8836 42.8405C35.7796 43.1525 35.7796 43.5684 35.9876 43.8803C36.2997 44.2962 36.4037 44.7122 36.4037 45.1281C36.4037 45.4401 36.2997 45.752 36.1957 46.0639C36.0917 46.3759 36.0917 46.6878 36.1957 46.9998C36.2997 47.3117 36.4037 47.6237 36.4037 47.9356C36.4037 48.2476 36.2997 48.5595 36.1957 48.8714C36.0917 49.1834 36.0917 49.4953 36.1957 49.8073C36.2997 50.1192 36.4037 50.4312 36.4037 50.7431V54.4864H36.6117V50.7431C36.6117 50.4312 36.5077 50.0152 36.4037 49.7033C36.2997 49.4953 36.2997 49.1834 36.4037 48.8714C36.5077 48.5595 36.6117 48.1436 36.6117 47.8316C36.6117 47.5197 36.5077 47.1037 36.4037 46.7918C36.2997 46.5838 36.2997 46.2719 36.4037 45.9599C36.6117 45.648 36.6117 45.2321 36.6117 44.9201C36.6117 44.4002 36.5077 43.9843 36.1957 43.5684C35.9876 43.2564 35.9876 42.9445 36.0917 42.7365C36.4037 42.0087 36.6117 41.1768 36.6117 40.241C36.6117 40.033 36.6117 39.8251 36.7157 39.6171C36.7157 39.3051 36.8197 39.0972 36.7157 38.7852V38.4733L36.9237 38.2653C37.7558 37.2255 38.1719 35.5618 38.1719 33.3782C38.1719 32.4424 38.0678 31.6105 37.7558 30.7787V30.6747V30.4667L38.3799 28.4911L39.004 28.699C40.1481 29.2189 41.5002 29.4269 42.7483 29.3229H43.1644L43.3724 29.6349C43.7884 30.2587 44.5165 30.5707 45.5566 30.5707C46.5967 30.5707 47.6368 30.2587 48.6769 29.6349C50.029 28.907 51.0692 27.7632 51.3812 26.7234V26.6194L51.4852 26.5154C52.0053 26.0995 52.5253 25.6836 52.9413 25.2676C53.6694 24.5398 54.0855 23.5 54.0855 22.3562V20.3805C54.0855 19.6526 53.9814 18.9248 53.6694 18.4049C53.0454 17.2611 52.1093 16.5332 50.9652 16.2213C49.821 15.9093 48.5729 16.1173 47.5328 16.8451L42.7483 20.0686C42.5403 20.2765 42.2283 20.3805 41.9162 20.4845L41.0842 20.6925V19.8606C41.0842 19.4447 40.8761 19.1327 40.5641 18.9248C37.1318 15.9093 34.9475 14.7655 32.9713 14.7655C30.9951 14.7655 28.9149 15.9093 25.4826 18.9248C25.1706 19.1327 25.0666 19.5487 24.9625 19.8606V20.6925L24.2345 20.4845C23.9224 20.3805 23.7144 20.2765 23.4024 20.0686L18.8259 17.0531C18.0979 16.6372 17.2658 16.3252 16.3297 16.3252C15.0816 16.3252 13.8334 16.8451 13.1054 17.573C12.3773 18.4049 11.9612 19.3407 11.9612 20.4845V22.5641C11.9612 23.7079 12.3773 24.7477 13.1054 25.4756C13.3134 25.6836 13.6254 25.9955 13.8334 26.2035L14.0415 26.4114V26.7234C14.0415 28.0751 15.7056 29.5309 17.8898 30.1548C19.658 30.6747 21.5302 30.4667 22.4663 29.7388L22.6743 29.5309H22.8823C23.1944 29.5309 23.4024 29.5309 23.7144 29.5309C24.8585 29.5309 26.0026 29.3229 26.9387 28.907L27.5628 28.699L28.1869 30.7787V30.8826C27.8748 31.8185 27.7708 32.6503 27.7708 33.5862C27.7708 35.7698 28.1869 37.3295 29.0189 38.4733L29.227 38.6812V38.9932C29.227 39.3051 29.227 39.6171 29.227 39.929C29.227 40.137 29.227 40.345 29.227 40.5529C29.227 41.3848 29.435 42.2166 29.747 42.9445C29.851 43.1525 29.851 43.4644 29.643 43.7763C29.331 44.1923 29.227 44.7122 29.227 45.2321C29.227 45.544 29.331 45.96 29.435 46.2719C29.539 46.4799 29.539 46.7918 29.435 47.1038C29.227 47.4157 29.227 47.8316 29.227 48.1436C29.227 48.4555 29.331 48.8714 29.435 49.1834C29.539 49.3913 29.539 49.7033 29.435 49.9113C29.227 50.2232 29.227 50.6391 29.227 50.9511V54.5904Z" fill="white"/>
<path d="M29.955 55.4223H28.2909V50.9511C28.2909 50.4312 28.3949 50.0152 28.6029 49.5993V49.4953C28.3949 49.0794 28.2909 48.5595 28.2909 48.1436C28.2909 47.6237 28.3949 47.2077 28.6029 46.7918V46.6878C28.3949 46.2719 28.2909 45.752 28.2909 45.3361C28.2909 44.7122 28.4989 44.0883 28.8109 43.5684C28.8109 43.4644 28.8109 43.4644 28.8109 43.4644C28.3949 42.6325 28.1869 41.6967 28.1869 40.6569C28.1869 40.4489 28.1869 40.345 28.1869 40.137C28.1869 39.8251 28.0829 39.4091 28.1869 39.0972C27.2508 37.8494 26.8347 36.0817 26.8347 33.7941C26.8347 32.7543 27.0428 31.8185 27.2508 30.9866L26.9387 29.8428C25.8986 30.2587 24.6505 30.4667 23.5064 30.4667C23.1944 30.4667 22.9863 30.4667 22.6743 30.4667C21.5302 31.4025 19.45 31.6105 17.4738 31.0906C15.0815 30.3627 13.2094 28.699 13.1054 27.0353C12.7933 26.8274 12.5853 26.5154 12.3773 26.3075C11.4412 25.3716 10.9211 24.1238 10.9211 22.8761V20.7964C10.9211 19.5487 11.4412 18.3009 12.2733 17.365C13.1053 16.4292 14.5615 15.8053 16.0176 15.8053C17.0578 15.8053 18.0979 16.1173 18.9299 16.6372L23.5064 19.7566C23.6104 19.8606 23.8184 19.9646 23.9224 19.9646C24.0265 19.4447 24.2345 18.9248 24.6505 18.6128C28.1869 15.4934 30.4751 14.2456 32.6593 14.2456C34.8435 14.2456 37.1318 15.4934 40.7721 18.6128C41.1882 18.9248 41.3962 19.4447 41.5002 19.9646C41.7082 19.8606 41.8122 19.8606 41.9162 19.7566L46.7007 16.5332C47.8448 15.7013 49.405 15.4934 50.7571 15.8053C52.1093 16.1173 53.2534 17.0531 53.9814 18.4049C54.2935 19.1327 54.5015 19.8606 54.5015 20.7964V22.7721C54.5015 24.0199 54.0855 25.2676 53.1494 26.2035C52.7333 26.7234 52.2133 27.1393 51.6932 27.5552C51.1732 28.803 50.0291 29.9468 48.5729 30.7787C47.4288 31.4026 46.1807 31.8185 45.0365 31.8185C43.7884 31.8185 42.7483 31.4026 42.2283 30.5707C40.8761 30.6747 39.628 30.4667 38.3799 29.9468L38.0679 31.0906C38.3799 32.0264 38.5879 32.9623 38.5879 33.8981C38.5879 36.1857 38.1719 37.9534 37.2358 39.2012C37.3398 39.6171 37.2358 39.929 37.2358 40.241C37.2358 40.4489 37.2358 40.6569 37.2358 40.8649C37.2358 41.8007 37.0278 42.8405 36.6117 43.6724V43.7763C37.0278 44.2963 37.1318 44.9201 37.1318 45.544C37.1318 46.0639 37.0278 46.4799 36.8197 46.8958V46.9998C37.0278 47.4157 37.1318 47.9356 37.1318 48.3515C37.1318 48.8714 37.0278 49.2874 36.8197 49.7033V49.8073C37.0278 50.2232 37.1318 50.7431 37.1318 51.159V55.6302H35.4676V51.159C35.4676 50.9511 35.4676 50.7431 35.3636 50.5351C35.1556 50.0152 35.1556 49.4953 35.3636 48.9754C35.4676 48.7675 35.5716 48.5595 35.5716 48.3515C35.5716 48.1436 35.5716 47.9356 35.4676 47.7276C35.2596 47.2077 35.2596 46.6878 35.4676 46.1679C35.5716 45.96 35.6756 45.752 35.6756 45.544C35.6756 45.2321 35.5716 44.9201 35.3636 44.7122C35.0516 44.1923 34.9475 43.5684 35.1556 42.9445C35.4676 42.3206 35.5716 41.5927 35.5716 40.8649C35.5716 40.6569 35.5716 40.5529 35.5716 40.4489L35.3636 40.5529C34.9475 40.7609 34.4275 40.5529 34.2195 40.137C34.0114 39.7211 34.2195 39.2012 34.6355 38.9932L35.8836 38.3693C36.6117 37.4335 37.0277 35.9777 37.0277 34.0021C37.0277 33.1702 36.9237 32.2344 36.6117 31.5065L36.5077 31.1946L37.5478 27.7632L38.4839 28.1791C39.836 28.907 41.2922 29.115 42.7483 28.907L43.4764 28.803L43.6844 29.4269C43.6844 29.4269 43.6844 29.5309 43.7884 29.5309C43.9964 29.8428 44.5165 30.0508 45.2446 30.0508C46.0767 30.0508 47.0127 29.7388 47.9488 29.2189C49.197 28.5951 50.0291 27.5552 50.3411 26.7234L50.4451 26.4114L50.6531 26.2035C51.1732 25.7875 51.6932 25.3716 52.1093 24.9557C52.6293 24.3318 52.9413 23.6039 52.9413 22.7721V20.7964C52.9413 20.1725 52.8373 19.6526 52.6293 19.2367C52.2133 18.4049 51.3812 17.781 50.4451 17.469C49.509 17.2611 48.5729 17.365 47.7408 17.885L42.9563 21.1084C42.2283 21.6283 41.2922 21.8363 40.4601 21.7323L39.42 21.6283L39.94 20.0686C39.94 19.9646 39.836 19.8606 39.836 19.8606C36.9237 17.3651 34.8435 15.9093 32.8673 15.9093C30.8911 15.9093 28.8109 17.3651 25.8986 19.8606C25.7946 19.9646 25.7946 19.9646 25.7946 20.0686L26.3147 21.6283L25.2746 21.7323C24.3385 21.8363 23.5064 21.6283 22.7783 21.1084L18.2019 17.9889C17.6818 17.677 16.9537 17.469 16.2257 17.469C15.1856 17.469 14.3535 17.781 13.7294 18.4049C13.2094 19.0288 12.8973 19.8606 12.8973 20.6925V22.7721C12.8973 23.6039 13.2094 24.4358 13.8334 25.0597C14.1455 25.3716 14.4575 25.6836 14.7695 25.8915L15.1856 26.2035L15.0816 26.7234C14.9775 27.4512 16.0177 28.803 18.2019 29.4269C19.762 29.8428 21.5302 29.6349 22.0503 29.011L22.3623 28.699L22.7783 28.803C23.1944 28.803 23.5064 28.907 23.8184 28.907C24.9625 28.907 26.2107 28.595 27.2508 28.0751L28.2909 27.6592L29.331 31.0906L29.227 31.4025C28.9149 32.2344 28.8109 33.0663 28.8109 33.8981C28.8109 35.8738 29.227 37.3295 29.955 38.2653L31.2032 38.8892C31.4112 38.9932 31.5152 39.2012 31.6192 39.4091C31.7232 39.6171 31.7232 39.825 31.6192 40.033C31.4112 40.4489 30.8911 40.6569 30.4751 40.4489L30.2671 40.345C30.2671 40.5529 30.2671 40.6569 30.2671 40.7609C30.2671 41.4887 30.3711 42.2166 30.6831 42.8405C30.9952 43.3604 30.8911 44.0883 30.5791 44.6082C30.3711 44.9201 30.2671 45.1281 30.2671 45.44C30.2671 45.648 30.3711 45.856 30.4751 46.0639C30.6831 46.5838 30.6831 47.1038 30.4751 47.6237C30.3711 47.8316 30.2671 48.0396 30.2671 48.2476C30.2671 48.4555 30.2671 48.6635 30.3711 48.8714C30.5791 49.3913 30.5791 49.9113 30.3711 50.4312C30.2671 50.6391 30.1631 50.8471 30.1631 51.0551V55.4223H29.955ZM29.227 54.5904V50.8471C29.227 50.5351 29.331 50.2232 29.435 49.9113C29.539 49.5993 29.539 49.2874 29.435 48.9754C29.331 48.6635 29.227 48.3515 29.227 48.0396C29.227 47.7276 29.331 47.4157 29.435 47.1038C29.539 46.7918 29.539 46.4799 29.435 46.1679C29.331 45.856 29.227 45.544 29.227 45.2321C29.227 44.8162 29.331 44.2963 29.643 43.9843C29.851 43.6724 29.851 43.2564 29.747 42.9445C29.435 42.2166 29.227 41.3848 29.227 40.5529C29.227 40.345 29.227 40.241 29.227 39.929L29.123 38.7852L30.5791 39.5131H30.6831L30.7871 39.0972L30.5791 39.4091L29.123 38.6812C28.1869 37.6414 27.7708 35.8737 27.7708 33.7941C27.7708 32.8583 27.9788 31.8185 28.2909 30.9866L27.4588 28.3871L27.2508 28.4911C26.1067 29.011 24.7545 29.3229 23.5064 29.3229C23.1944 29.3229 22.7783 29.3229 22.3623 29.2189C21.5302 30.0508 19.658 30.3627 17.6818 29.8428C15.1856 29.1149 13.8334 27.4513 14.0415 26.3075C13.6254 25.9955 13.3134 25.6836 13.0014 25.3716C12.2733 24.6438 11.8572 23.6039 11.8572 22.5641V20.4845C11.8572 19.4447 12.2733 18.5088 12.8973 17.677C13.6254 16.9491 14.7695 16.4292 15.9136 16.4292C16.7457 16.4292 17.6818 16.6372 18.3059 17.1571L22.8823 20.2765C23.5064 20.6925 24.2345 20.9004 24.9625 20.7964H25.0665L24.7545 19.9646V19.8606C24.8585 19.5487 24.9625 19.3407 25.1706 19.1327C28.1869 16.5332 30.3711 15.0775 32.5553 15.0775C34.8435 15.0775 37.0278 16.5332 40.0441 19.2367C40.2521 19.4447 40.3561 19.6526 40.4601 19.9646V20.0686V20.1726L40.2521 20.9004H40.3561C41.0842 21.0044 41.8122 20.7964 42.4363 20.3805L47.2208 17.1571C48.1569 16.5332 49.405 16.3252 50.5491 16.6372C51.6932 16.9491 52.6293 17.677 53.1494 18.7168C53.4614 19.2367 53.5654 19.9646 53.5654 20.5885V22.5641C53.5654 23.6039 53.1494 24.5398 52.5253 25.2676C52.1093 25.7875 51.5892 26.2035 50.9652 26.6194C50.6531 27.6592 49.613 28.803 48.2609 29.6349C47.2208 30.2587 46.1807 30.5707 45.1406 30.5707C44.1005 30.5707 43.3724 30.2587 43.0604 29.6349C43.0604 29.5309 42.9563 29.4269 42.9563 29.4269V29.3229H42.8523C41.1882 29.5309 39.628 29.2189 38.1719 28.4911L37.8598 28.3871L37.1318 30.7787C37.4438 31.7145 37.6518 32.6503 37.6518 33.5862C37.6518 35.7698 37.2358 37.4335 36.2997 38.4733L36.1957 38.5773L34.8435 39.2012C34.8435 39.2012 34.7395 39.3051 34.8435 39.3051L34.9475 39.4091L36.5077 38.6812L36.4037 39.825C36.4037 40.033 36.4037 40.241 36.4037 40.4489C36.4037 41.2808 36.1957 42.1126 35.8836 42.8405C35.7796 43.1525 35.7796 43.5684 35.9876 43.8803C36.2997 44.2962 36.4037 44.7122 36.4037 45.1281C36.4037 45.4401 36.2997 45.752 36.1957 46.0639C36.0917 46.3759 36.0917 46.6878 36.1957 46.9998C36.2997 47.3117 36.4037 47.6237 36.4037 47.9356C36.4037 48.2476 36.2997 48.5595 36.1957 48.8714C36.0917 49.1834 36.0917 49.4953 36.1957 49.8073C36.2997 50.1192 36.4037 50.4312 36.4037 50.7431V54.4864H36.6117V50.7431C36.6117 50.4312 36.5077 50.0152 36.4037 49.7033C36.2997 49.4953 36.2997 49.1834 36.4037 48.8714C36.5077 48.5595 36.6117 48.1436 36.6117 47.8316C36.6117 47.5197 36.5077 47.1037 36.4037 46.7918C36.2997 46.5838 36.2997 46.2719 36.4037 45.9599C36.6117 45.648 36.6117 45.2321 36.6117 44.9201C36.6117 44.4002 36.5077 43.9843 36.1957 43.5684C35.9876 43.2564 35.9876 42.9445 36.0917 42.7365C36.4037 42.0087 36.6117 41.1768 36.6117 40.241C36.6117 40.033 36.6117 39.8251 36.7157 39.6171C36.7157 39.3051 36.8197 39.0972 36.7157 38.7852V38.4733L36.9237 38.2653C37.7558 37.2255 38.1719 35.5618 38.1719 33.3782C38.1719 32.4424 38.0678 31.6105 37.7558 30.7787V30.6747V30.4667L38.3799 28.4911L39.004 28.699C40.1481 29.2189 41.5002 29.4269 42.7483 29.3229H43.1644L43.3724 29.6349C43.7884 30.2587 44.5165 30.5707 45.5566 30.5707C46.5967 30.5707 47.6368 30.2587 48.6769 29.6349C50.029 28.907 51.0692 27.7632 51.3812 26.7234V26.6194L51.4852 26.5154C52.0053 26.0995 52.5253 25.6836 52.9413 25.2676C53.6694 24.5398 54.0855 23.5 54.0855 22.3562V20.3805C54.0855 19.6526 53.9814 18.9248 53.6694 18.4049C53.0454 17.2611 52.1093 16.5332 50.9652 16.2213C49.821 15.9093 48.5729 16.1173 47.5328 16.8451L42.7483 20.0686C42.5403 20.2765 42.2283 20.3805 41.9162 20.4845L41.0842 20.6925V19.8606C41.0842 19.4447 40.8761 19.1327 40.5641 18.9248C37.1318 15.9093 34.9475 14.7655 32.9713 14.7655C30.9951 14.7655 28.9149 15.9093 25.4826 18.9248C25.1706 19.1327 25.0666 19.5487 24.9625 19.8606V20.6925L24.2345 20.4845C23.9224 20.3805 23.7144 20.2765 23.4024 20.0686L18.8259 17.0531C18.0979 16.6372 17.2658 16.3252 16.3297 16.3252C15.0816 16.3252 13.8334 16.8451 13.1054 17.573C12.3773 18.4049 11.9612 19.3407 11.9612 20.4845V22.5641C11.9612 23.7079 12.3773 24.7477 13.1054 25.4756C13.3134 25.6836 13.6254 25.9955 13.8334 26.2035L14.0415 26.4114V26.7234C14.0415 28.0751 15.7056 29.5309 17.8898 30.1548C19.658 30.6747 21.5302 30.4667 22.4663 29.7388L22.6743 29.5309H22.8823C23.1944 29.5309 23.4024 29.5309 23.7144 29.5309C24.8585 29.5309 26.0026 29.3229 26.9387 28.907L27.5628 28.699L28.1869 30.7787V30.8826C27.8748 31.8185 27.7708 32.6503 27.7708 33.5862C27.7708 35.7698 28.1869 37.3295 29.0189 38.4733L29.227 38.6812V38.9932C29.227 39.3051 29.227 39.6171 29.227 39.929C29.227 40.137 29.227 40.345 29.227 40.5529C29.227 41.3848 29.435 42.2166 29.747 42.9445C29.851 43.1525 29.851 43.4644 29.643 43.7763C29.331 44.1923 29.227 44.7122 29.227 45.2321C29.227 45.544 29.331 45.96 29.435 46.2719C29.539 46.4799 29.539 46.7918 29.435 47.1038C29.227 47.4157 29.227 47.8316 29.227 48.1436C29.227 48.4555 29.331 48.8714 29.435 49.1834C29.539 49.3913 29.539 49.7033 29.435 49.9113C29.227 50.2232 29.227 50.6391 29.227 50.9511V54.5904Z" fill="white"/>
<path d="M17.0577 23.9159C17.6817 23.9159 18.4098 24.0199 19.1379 24.2279C20.178 24.5398 21.1141 24.9557 21.8422 25.5796L22.1542 25.6836C22.4662 25.7876 22.8823 25.7876 23.2983 25.7876C24.0264 25.7876 24.8585 25.5796 25.5865 25.2677L25.7945 25.1637L25.3785 23.708H25.1705C24.9625 23.708 24.7544 23.708 24.5464 23.708C23.2983 23.708 22.1542 23.396 21.1141 22.6681L16.4336 19.6527C16.3296 19.5487 16.1216 19.5487 16.0176 19.5487C15.8096 19.5487 15.6015 19.6527 15.4975 19.7567C15.3935 19.8606 15.2895 20.0686 15.2895 20.2766V22.2522C15.2895 22.4602 15.3935 22.6681 15.4975 22.7721C15.8096 23.0841 16.2256 23.396 16.6416 23.708H16.7456H16.8497C16.7457 23.9159 16.8497 23.9159 17.0577 23.9159ZM23.2983 26.7234C22.8823 26.7234 22.4662 26.7234 21.9462 26.6194L21.4261 26.5154L21.3221 26.4115C20.6981 25.8916 19.866 25.3716 18.8259 25.1637C18.2018 24.9557 17.5777 24.9557 17.0577 24.9557C16.8497 24.9557 16.6416 24.9557 16.4336 24.9557H16.2256L16.1216 24.8518C15.4975 24.4358 14.9775 24.1239 14.6654 23.708C14.3534 23.396 14.1454 22.9801 14.1454 22.5641V20.5885C14.1454 20.1726 14.3534 19.7567 14.6654 19.4447C14.9775 19.1328 15.3935 18.9248 15.9136 18.9248C16.2256 18.9248 16.5376 19.0288 16.8497 19.2367L21.5301 22.2522C22.3622 22.7721 23.4023 23.0841 24.4424 23.0841C24.7545 23.0841 25.1705 23.0841 25.4825 22.9801L25.8986 22.8761L26.8347 25.8916L26.0026 26.2035C25.1705 26.5154 24.2344 26.7234 23.2983 26.7234Z" fill="white"/>
<path d="M23.2983 27.0351C22.7783 27.0351 22.3622 27.0351 21.9462 26.9311L21.3221 26.8271L21.1141 26.7231C20.49 26.2032 19.762 25.7873 18.8259 25.4754C18.0978 25.2674 17.2657 25.1634 16.5377 25.2674H16.2256L16.0176 25.1634C15.3935 24.7475 14.8735 24.3316 14.4574 23.9156C14.0414 23.4997 13.8334 22.9798 13.8334 22.4599V20.4842C13.8334 19.9643 14.0414 19.4444 14.4574 19.0285C15.0815 18.4046 16.2256 18.1967 17.0577 18.8206L21.7382 21.836C22.7783 22.5639 24.1304 22.7718 25.4826 22.5639L26.2106 22.4599L27.3547 26.0993L26.2106 26.6192C25.2745 26.8271 24.2344 27.0351 23.2983 27.0351ZM21.5302 26.0993L22.0502 26.2032C23.2983 26.5152 24.6505 26.3072 25.7946 25.7873L26.3146 25.5793L25.5866 23.2918H25.4826C24.0264 23.6037 22.4662 23.2918 21.2181 22.4599L16.5377 19.4444C16.0176 19.1325 15.2895 19.1325 14.8735 19.6524C14.6655 19.8604 14.4574 20.1723 14.4574 20.5882V22.5639C14.4574 22.8758 14.5614 23.1878 14.8735 23.4997C15.2895 23.9156 15.7056 24.2276 16.3296 24.6435C17.1617 24.5395 17.9938 24.6435 18.8259 24.8515C19.97 24.9555 20.9061 25.4754 21.5302 26.0993ZM23.2983 26.2032C22.8823 26.2032 22.4662 26.2032 22.1542 26.0993L21.7382 25.9953L21.6342 25.8913C20.9061 25.2674 20.074 24.8515 19.0339 24.5395C18.2018 24.3316 17.3697 24.2276 16.6417 24.3316H16.5377L16.3296 24.2276C15.8096 23.9156 15.3935 23.6037 15.0815 23.1878C14.8735 22.9798 14.7695 22.6679 14.7695 22.3559V20.3803C14.7695 20.0683 14.8735 19.7564 15.0815 19.5484C15.4976 19.1325 16.1216 19.1325 16.5377 19.4444L21.2181 22.4599C22.3622 23.1878 23.7144 23.4997 25.0665 23.3957L25.5866 23.2918L26.2106 25.3714L25.6906 25.5793C24.9625 25.9953 24.1304 26.2032 23.2983 26.2032ZM21.9462 25.2674H22.1542C23.1943 25.4754 24.2344 25.3714 25.1705 24.9555L24.8585 24.1236C23.4023 24.2276 21.9462 23.9156 20.5941 23.0838L15.9136 20.0683C15.7056 19.9643 15.4975 19.9643 15.3935 20.1723C15.2895 20.2763 15.2895 20.3803 15.2895 20.4842V22.4599C15.2895 22.5639 15.2895 22.6679 15.3935 22.7718C15.7056 23.0838 16.0176 23.3957 16.4336 23.6037C16.6417 23.6037 16.7457 23.6037 16.8497 23.6037C17.5778 23.6037 18.3058 23.7077 19.0339 23.9156C20.282 24.1236 21.2181 24.6435 21.9462 25.2674Z" fill="white"/>
<path d="M23.2983 27.0351C22.7783 27.0351 22.3622 27.0351 21.9462 26.9311L21.3221 26.8271L21.1141 26.7231C20.49 26.2032 19.762 25.7873 18.8259 25.4754C18.0978 25.2674 17.2657 25.1634 16.5377 25.2674H16.2256L16.0176 25.1634C15.3935 24.7475 14.8735 24.3316 14.4574 23.9156C14.0414 23.4997 13.8334 22.9798 13.8334 22.4599V20.4842C13.8334 19.9643 14.0414 19.4444 14.4574 19.0285C15.0815 18.4046 16.2256 18.1967 17.0577 18.8206L21.7382 21.836C22.7783 22.5639 24.1304 22.7718 25.4826 22.5639L26.2106 22.4599L27.3547 26.0993L26.2106 26.6192C25.2745 26.8271 24.2344 27.0351 23.2983 27.0351ZM21.5302 26.0993L22.0502 26.2032C23.2983 26.5152 24.6505 26.3072 25.7946 25.7873L26.3146 25.5793L25.5866 23.2918H25.4826C24.0264 23.6037 22.4662 23.2918 21.2181 22.4599L16.5377 19.4444C16.0176 19.1325 15.2895 19.1325 14.8735 19.6524C14.6655 19.8604 14.4574 20.1723 14.4574 20.5882V22.5639C14.4574 22.8758 14.5614 23.1878 14.8735 23.4997C15.2895 23.9156 15.7056 24.2276 16.3296 24.6435C17.1617 24.5395 17.9938 24.6435 18.8259 24.8515C19.97 24.9555 20.9061 25.4754 21.5302 26.0993ZM23.2983 26.2032C22.8823 26.2032 22.4662 26.2032 22.1542 26.0993L21.7382 25.9953L21.6342 25.8913C20.9061 25.2674 20.074 24.8515 19.0339 24.5395C18.2018 24.3316 17.3697 24.2276 16.6417 24.3316H16.5377L16.3296 24.2276C15.8096 23.9156 15.3935 23.6037 15.0815 23.1878C14.8735 22.9798 14.7695 22.6679 14.7695 22.3559V20.3803C14.7695 20.0683 14.8735 19.7564 15.0815 19.5484C15.4976 19.1325 16.1216 19.1325 16.5377 19.4444L21.2181 22.4599C22.3622 23.1878 23.7144 23.4997 25.0665 23.3957L25.5866 23.2918L26.2106 25.3714L25.6906 25.5793C24.9625 25.9953 24.1304 26.2032 23.2983 26.2032ZM21.9462 25.2674H22.1542C23.1943 25.4754 24.2344 25.3714 25.1705 24.9555L24.8585 24.1236C23.4023 24.2276 21.9462 23.9156 20.5941 23.0838L15.9136 20.0683C15.7056 19.9643 15.4975 19.9643 15.3935 20.1723C15.2895 20.2763 15.2895 20.3803 15.2895 20.4842V22.4599C15.2895 22.5639 15.2895 22.6679 15.3935 22.7718C15.7056 23.0838 16.0176 23.3957 16.4336 23.6037C16.6417 23.6037 16.7457 23.6037 16.8497 23.6037C17.5778 23.6037 18.3058 23.7077 19.0339 23.9156C20.282 24.1236 21.2181 24.6435 21.9462 25.2674Z" fill="white"/>
<path d="M39.628 25.1637L39.836 25.2676C40.5641 25.5796 41.2922 25.7876 42.1243 25.7876C42.5403 25.7876 42.8523 25.7876 43.2684 25.6836L44.1004 25.4756C44.5165 25.0597 44.9325 24.7477 45.4526 24.5398C46.4927 23.9159 47.6368 23.6039 48.6769 23.6039C48.8849 23.6039 48.9889 23.6039 49.1969 23.6039H49.301L49.405 23.5C49.613 23.292 49.821 23.084 50.029 22.9801C50.133 22.8761 50.2371 22.6681 50.2371 22.4602V20.4845C50.2371 20.2765 50.133 20.0686 50.029 19.9646C49.925 19.8606 49.717 19.7566 49.509 19.7566C49.301 19.7566 49.197 19.7566 49.0929 19.8606L44.4125 22.8761C43.3724 23.5 42.2283 23.9159 40.9801 23.9159C40.7721 23.9159 40.5641 23.9159 40.3561 23.9159H40.148L39.628 25.1637ZM42.1243 26.7234C41.1882 26.7234 40.2521 26.5154 39.42 26.0995L38.5879 25.7876L39.524 22.7721L39.94 22.8761C40.2521 22.9801 40.6681 22.9801 40.9801 22.9801C42.0202 22.9801 43.0603 22.6681 43.8924 22.1482L48.5729 19.1327C48.8849 18.9248 49.197 18.8208 49.509 18.8208C49.925 18.8208 50.4451 19.0288 50.7571 19.3407C51.0691 19.6527 51.2772 20.0686 51.2772 20.4845V22.4602C51.2772 22.8761 51.0691 23.292 50.7571 23.6039C50.4451 23.9159 50.133 24.1238 49.821 24.4358L49.613 24.5398H49.405C49.197 24.5398 48.9889 24.4358 48.7809 24.4358C47.9488 24.4358 46.9087 24.7477 45.9726 25.2676C45.4526 25.5796 45.0365 25.8915 44.6205 26.2035L44.5165 26.3075L43.3724 26.5154C42.9563 26.6194 42.5403 26.7234 42.1243 26.7234Z" fill="white"/>
<path d="M42.1242 27.0352C41.0841 27.0352 40.148 26.8272 39.2119 26.4113L38.0677 25.8914L39.2119 22.252L39.9399 22.356C41.1881 22.564 42.5402 22.356 43.6843 21.6281L48.3648 18.6127C49.1969 18.0928 50.341 18.1967 50.965 18.8206C51.3811 19.2366 51.5891 19.7565 51.5891 20.2764V22.252C51.5891 22.7719 51.3811 23.2918 50.965 23.7078C50.653 24.0197 50.341 24.3317 49.9249 24.5396L49.6129 24.7476L49.1969 24.6436C48.2608 24.4356 47.1167 24.7476 45.9725 25.3715C45.4525 25.6834 45.0365 25.8914 44.7244 26.3073L44.5164 26.5153L43.2683 26.8272C43.0602 27.0352 42.5402 27.0352 42.1242 27.0352ZM39.0039 25.4754L39.5239 25.6834C40.668 26.3073 42.1242 26.4113 43.2683 26.2033L44.3084 25.9954C44.7244 25.5794 45.2445 25.2675 45.7645 24.9555C47.0127 24.2277 48.4688 24.0197 49.5089 24.1237C49.8209 23.8117 50.133 23.6038 50.445 23.2918C50.653 23.0839 50.861 22.7719 50.861 22.356V20.3804C50.861 20.0684 50.757 19.7565 50.445 19.4445C50.029 19.0286 49.3009 18.9246 48.7808 19.2366L44.1004 22.252C42.8522 23.0839 41.2921 23.3958 39.8359 23.0839H39.7319L39.0039 25.4754ZM42.1242 26.2033C41.2921 26.2033 40.46 25.9953 39.7319 25.6834L39.2119 25.4754L39.8359 23.3958L40.356 23.4998C41.7081 23.6038 43.0603 23.2918 44.2044 22.564L48.8848 19.5485C49.3009 19.2366 50.0289 19.3405 50.341 19.6525C50.549 19.8604 50.653 20.1724 50.653 20.4843V22.46C50.653 22.7719 50.549 23.0839 50.341 23.2918C50.133 23.4998 49.9249 23.7078 49.7169 23.9157L49.5089 24.1237H49.3009C48.2608 24.0197 47.0127 24.3316 45.7645 24.9555C45.2445 25.2675 44.8284 25.5794 44.4124 25.8914L44.3084 25.9954L44.2044 26.0993L43.3723 26.3073C42.9562 26.0993 42.5402 26.2033 42.1242 26.2033ZM40.148 24.9555C41.0841 25.3715 42.1242 25.4754 43.1643 25.2675L43.8923 25.0595C44.3084 24.6436 44.8284 24.3317 45.3485 24.0197C46.7006 23.2918 48.0528 22.9799 49.3009 23.0839C49.5089 22.8759 49.7169 22.7719 49.8209 22.564C49.9249 22.46 49.9249 22.356 49.9249 22.252V20.2764C49.9249 20.1724 49.9249 20.0684 49.8209 19.9644C49.7169 19.8604 49.4049 19.7565 49.3009 19.9644L44.6204 22.9799C43.3723 23.8117 41.9161 24.2277 40.356 24.0197L40.148 24.9555Z" fill="white"/>
<path d="M42.1242 27.0352C41.0841 27.0352 40.148 26.8272 39.2119 26.4113L38.0677 25.8914L39.2119 22.252L39.9399 22.356C41.1881 22.564 42.5402 22.356 43.6843 21.6281L48.3648 18.6127C49.1969 18.0928 50.341 18.1967 50.965 18.8206C51.3811 19.2366 51.5891 19.7565 51.5891 20.2764V22.252C51.5891 22.7719 51.3811 23.2918 50.965 23.7078C50.653 24.0197 50.341 24.3317 49.9249 24.5396L49.6129 24.7476L49.1969 24.6436C48.2608 24.4356 47.1167 24.7476 45.9725 25.3715C45.4525 25.6834 45.0365 25.8914 44.7244 26.3073L44.5164 26.5153L43.2683 26.8272C43.0602 27.0352 42.5402 27.0352 42.1242 27.0352ZM39.0039 25.4754L39.5239 25.6834C40.668 26.3073 42.1242 26.4113 43.2683 26.2033L44.3084 25.9954C44.7244 25.5794 45.2445 25.2675 45.7645 24.9555C47.0127 24.2277 48.4688 24.0197 49.5089 24.1237C49.8209 23.8117 50.133 23.6038 50.445 23.2918C50.653 23.0839 50.861 22.7719 50.861 22.356V20.3804C50.861 20.0684 50.757 19.7565 50.445 19.4445C50.029 19.0286 49.3009 18.9246 48.7808 19.2366L44.1004 22.252C42.8522 23.0839 41.2921 23.3958 39.8359 23.0839H39.7319L39.0039 25.4754ZM42.1242 26.2033C41.2921 26.2033 40.46 25.9953 39.7319 25.6834L39.2119 25.4754L39.8359 23.3958L40.356 23.4998C41.7081 23.6038 43.0603 23.2918 44.2044 22.564L48.8848 19.5485C49.3009 19.2366 50.0289 19.3405 50.341 19.6525C50.549 19.8604 50.653 20.1724 50.653 20.4843V22.46C50.653 22.7719 50.549 23.0839 50.341 23.2918C50.133 23.4998 49.9249 23.7078 49.7169 23.9157L49.5089 24.1237H49.3009C48.2608 24.0197 47.0127 24.3316 45.7645 24.9555C45.2445 25.2675 44.8284 25.5794 44.4124 25.8914L44.3084 25.9954L44.2044 26.0993L43.3723 26.3073C42.9562 26.0993 42.5402 26.2033 42.1242 26.2033ZM40.148 24.9555C41.0841 25.3715 42.1242 25.4754 43.1643 25.2675L43.8923 25.0595C44.3084 24.6436 44.8284 24.3317 45.3485 24.0197C46.7006 23.2918 48.0528 22.9799 49.3009 23.0839C49.5089 22.8759 49.7169 22.7719 49.8209 22.564C49.9249 22.46 49.9249 22.356 49.9249 22.252V20.2764C49.9249 20.1724 49.9249 20.0684 49.8209 19.9644C49.7169 19.8604 49.4049 19.7565 49.3009 19.9644L44.6204 22.9799C43.3723 23.8117 41.9161 24.2277 40.356 24.0197L40.148 24.9555Z" fill="white"/>
<path d="M31.3071 35.9776C31.099 35.6656 30.891 34.8338 30.891 33.274C30.891 32.6502 30.995 32.1303 31.2031 31.6104C31.4111 30.9865 31.4111 30.2586 31.3071 29.6347L30.579 27.3471C30.475 26.9312 30.267 26.5152 29.9549 26.2033L29.8509 26.0993V25.8914C29.8509 25.4754 29.8509 25.0595 29.7469 24.6436L29.0188 22.356C28.9148 21.9401 28.7068 21.5241 28.3948 21.2122L28.2908 21.1082V20.9003C28.2908 20.9003 28.2908 20.7963 28.2908 20.6923V20.4843L28.3948 20.3803C30.371 18.7166 31.7231 17.9888 32.5552 17.9888C33.4913 17.9888 34.8434 18.7166 36.8196 20.3803L36.9236 20.4843V20.6923C36.9236 20.7963 36.9236 20.7963 36.9236 20.9003V21.1082L36.8196 21.2122C36.5076 21.5241 36.2996 21.9401 36.1956 22.356L35.4675 24.6436C35.3635 25.0595 35.2595 25.4754 35.3635 25.8914V26.0993L35.2595 26.2033C34.9474 26.5152 34.7394 26.9312 34.6354 27.3471L33.9073 29.6347C33.6993 30.2586 33.6993 30.9865 34.0113 31.6104C34.2194 32.1303 34.3234 32.7541 34.3234 33.274C34.3234 34.8338 34.0113 35.5616 33.9073 35.9776L33.1793 35.3537C33.2833 35.0417 33.4913 34.4178 33.4913 33.274C33.4913 32.7541 33.3873 32.3382 33.2833 31.9223C32.9712 31.0904 32.9712 30.1546 33.1793 29.3227L33.9073 27.0352C34.0113 26.6192 34.2194 26.2033 34.5314 25.7874L34.6354 25.6834V25.5794C34.6354 25.1635 34.6354 24.6436 34.8434 24.2277L35.5715 21.9401C35.6755 21.6281 35.8835 21.2122 35.9875 20.9003L36.0916 20.6923L35.8835 20.5883C34.3234 19.3405 33.1793 18.7166 32.5552 18.7166C31.9311 18.7166 30.891 19.3405 29.3309 20.5883L29.1229 20.6923L29.2269 20.9003C29.4349 21.2122 29.5389 21.5241 29.7469 21.9401L30.475 24.2277C30.579 24.6436 30.683 25.1635 30.683 25.5794V25.6834L30.787 25.7874C31.099 26.2033 31.3071 26.5152 31.4111 27.0352L32.1392 29.3227C32.4512 30.1546 32.3472 31.0904 32.0351 31.9223C31.8271 32.3382 31.8271 32.8581 31.8271 33.274C31.8271 34.4178 32.0351 35.0417 32.1392 35.3537L31.3071 35.9776Z" fill="white"/>
<path d="M34.1154 36.6014L32.8673 35.4576L32.9713 35.2496C33.0753 35.0417 33.1793 34.4178 33.1793 33.378C33.1793 32.962 33.0753 32.5461 32.9713 32.1302C32.6592 31.1944 32.5552 30.2585 32.8673 29.3227L33.5953 27.0351C33.6993 26.5152 33.9074 26.0993 34.2194 25.7873C34.2194 25.2674 34.3234 24.8515 34.4274 24.3316L35.1555 22.044C35.2595 21.732 35.3635 21.3161 35.5715 21.0042C33.5953 19.4444 32.8673 19.2365 32.6592 19.2365C32.4512 19.2365 31.7231 19.4444 29.7469 21.0042C29.955 21.3161 30.059 21.6281 30.163 22.044L30.8911 24.3316C30.9951 24.7475 31.0991 25.2674 31.0991 25.7873C31.4111 26.2032 31.6191 26.6192 31.7232 27.0351L32.4512 29.3227C32.7633 30.2585 32.6592 31.2983 32.3472 32.1302C32.2432 32.5461 32.1392 32.962 32.1392 33.378C32.1392 34.5218 32.3472 35.0417 32.3472 35.3536L32.4512 35.5616L31.2031 36.6014L30.9951 36.1855C30.787 35.7695 30.475 34.9377 30.475 33.274C30.475 32.6501 30.579 32.0262 30.7871 31.4023C30.9951 30.8824 30.9951 30.2585 30.8911 29.6346L30.163 27.451C30.059 27.1391 29.851 26.7231 29.6429 26.5152L29.4349 26.2032V25.8913C29.4349 25.4754 29.4349 25.1634 29.3309 24.7475L28.6028 22.4599C28.4988 22.148 28.2908 21.732 28.0828 21.5241L27.8748 21.2121V20.9002V20.7962V20.3803L28.1868 20.1723C30.267 18.4046 31.6191 17.6768 32.6592 17.6768C33.6993 17.6768 35.0515 18.5086 37.1317 20.1723L37.4437 20.3803V20.7962V20.9002V21.3161L37.2357 21.6281C37.0277 21.94 36.8197 22.2519 36.7156 22.5639L35.9876 24.8515C35.8836 25.2674 35.8836 25.5793 35.8836 25.9953V26.3072L35.6755 26.6192C35.4675 26.9311 35.2595 27.2431 35.1555 27.555L34.4274 29.7386C34.2194 30.3625 34.2194 30.9864 34.4274 31.5063C34.6354 32.0262 34.7395 32.6501 34.7395 33.378C34.7395 34.9377 34.4274 35.7695 34.2194 36.1855L34.1154 36.6014ZM30.163 25.9953C30.475 26.4112 30.683 26.8271 30.8911 27.243L31.6191 29.4267C31.8272 30.1545 31.8272 30.9864 31.5151 31.7143C31.3071 32.2342 31.2031 32.7541 31.2031 33.274C31.2031 34.3138 31.3071 34.9377 31.4111 35.3536L31.5151 35.2496C31.4111 34.8337 31.3071 34.2098 31.3071 33.274C31.3071 32.7541 31.4111 32.2342 31.6191 31.8182C31.9312 31.0904 31.9312 30.2585 31.7232 29.4267L30.9951 27.1391C30.8911 26.7232 30.683 26.4112 30.475 25.9953L30.371 25.8913V25.6833C30.371 25.1634 30.371 24.7475 30.163 24.3316L29.4349 22.044C29.3309 21.732 29.2269 21.4201 29.0189 21.1081L28.7068 20.5882L29.1229 20.2763C30.6831 18.9245 31.9312 18.3007 32.5552 18.3007C33.2833 18.3007 34.4274 18.9245 36.0916 20.2763L36.5076 20.5882L36.1956 21.1081C35.9876 21.4201 35.8836 21.732 35.7796 22.044L35.0515 24.3316C34.9475 24.7475 34.8435 25.1634 34.8435 25.5794V25.6833L34.7395 25.9953C34.5314 26.3072 34.3234 26.7232 34.2194 27.1391L33.6993 29.4267C33.4913 30.1545 33.4913 31.0904 33.8034 31.8182C34.0114 32.3382 34.1154 32.7541 34.1154 33.274C34.1154 34.2098 34.0114 34.8337 33.9074 35.2496L34.0114 35.3536C34.1154 34.9377 34.2194 34.3138 34.2194 33.274C34.2194 32.7541 34.1154 32.2342 33.9074 31.7143C33.5953 30.9864 33.5953 30.1545 33.8034 29.4267L34.5314 27.243C34.6354 26.8271 34.9475 26.4112 35.2595 25.9953C35.2595 25.4754 35.2595 25.0594 35.3635 24.5395L36.0916 22.252C36.1956 21.836 36.5076 21.4201 36.8197 21.0042V20.9002C36.8197 20.7962 36.8197 20.7962 36.8197 20.6922C34.9475 19.1325 33.5953 18.3007 32.7633 18.3007C31.9312 18.3007 30.683 19.0285 28.8109 20.5882V20.6922C28.8109 20.7962 28.8109 20.7962 28.8109 20.9002C29.1229 21.3161 29.3309 21.732 29.5389 22.148L30.267 24.4356C30.163 25.0594 30.267 25.4754 30.163 25.9953Z" fill="white"/>
<path d="M34.1154 36.6014L32.8673 35.4576L32.9713 35.2496C33.0753 35.0417 33.1793 34.4178 33.1793 33.378C33.1793 32.962 33.0753 32.5461 32.9713 32.1302C32.6592 31.1944 32.5552 30.2585 32.8673 29.3227L33.5953 27.0351C33.6993 26.5152 33.9074 26.0993 34.2194 25.7873C34.2194 25.2674 34.3234 24.8515 34.4274 24.3316L35.1555 22.044C35.2595 21.732 35.3635 21.3161 35.5715 21.0042C33.5953 19.4444 32.8673 19.2365 32.6592 19.2365C32.4512 19.2365 31.7231 19.4444 29.7469 21.0042C29.955 21.3161 30.059 21.6281 30.163 22.044L30.8911 24.3316C30.9951 24.7475 31.0991 25.2674 31.0991 25.7873C31.4111 26.2032 31.6191 26.6192 31.7232 27.0351L32.4512 29.3227C32.7633 30.2585 32.6592 31.2983 32.3472 32.1302C32.2432 32.5461 32.1392 32.962 32.1392 33.378C32.1392 34.5218 32.3472 35.0417 32.3472 35.3536L32.4512 35.5616L31.2031 36.6014L30.9951 36.1855C30.787 35.7695 30.475 34.9377 30.475 33.274C30.475 32.6501 30.579 32.0262 30.7871 31.4023C30.9951 30.8824 30.9951 30.2585 30.8911 29.6346L30.163 27.451C30.059 27.1391 29.851 26.7231 29.6429 26.5152L29.4349 26.2032V25.8913C29.4349 25.4754 29.4349 25.1634 29.3309 24.7475L28.6028 22.4599C28.4988 22.148 28.2908 21.732 28.0828 21.5241L27.8748 21.2121V20.9002V20.7962V20.3803L28.1868 20.1723C30.267 18.4046 31.6191 17.6768 32.6592 17.6768C33.6993 17.6768 35.0515 18.5086 37.1317 20.1723L37.4437 20.3803V20.7962V20.9002V21.3161L37.2357 21.6281C37.0277 21.94 36.8197 22.2519 36.7156 22.5639L35.9876 24.8515C35.8836 25.2674 35.8836 25.5793 35.8836 25.9953V26.3072L35.6755 26.6192C35.4675 26.9311 35.2595 27.2431 35.1555 27.555L34.4274 29.7386C34.2194 30.3625 34.2194 30.9864 34.4274 31.5063C34.6354 32.0262 34.7395 32.6501 34.7395 33.378C34.7395 34.9377 34.4274 35.7695 34.2194 36.1855L34.1154 36.6014ZM30.163 25.9953C30.475 26.4112 30.683 26.8271 30.8911 27.243L31.6191 29.4267C31.8272 30.1545 31.8272 30.9864 31.5151 31.7143C31.3071 32.2342 31.2031 32.7541 31.2031 33.274C31.2031 34.3138 31.3071 34.9377 31.4111 35.3536L31.5151 35.2496C31.4111 34.8337 31.3071 34.2098 31.3071 33.274C31.3071 32.7541 31.4111 32.2342 31.6191 31.8182C31.9312 31.0904 31.9312 30.2585 31.7232 29.4267L30.9951 27.1391C30.8911 26.7232 30.683 26.4112 30.475 25.9953L30.371 25.8913V25.6833C30.371 25.1634 30.371 24.7475 30.163 24.3316L29.4349 22.044C29.3309 21.732 29.2269 21.4201 29.0189 21.1081L28.7068 20.5882L29.1229 20.2763C30.6831 18.9245 31.9312 18.3007 32.5552 18.3007C33.2833 18.3007 34.4274 18.9245 36.0916 20.2763L36.5076 20.5882L36.1956 21.1081C35.9876 21.4201 35.8836 21.732 35.7796 22.044L35.0515 24.3316C34.9475 24.7475 34.8435 25.1634 34.8435 25.5794V25.6833L34.7395 25.9953C34.5314 26.3072 34.3234 26.7232 34.2194 27.1391L33.6993 29.4267C33.4913 30.1545 33.4913 31.0904 33.8034 31.8182C34.0114 32.3382 34.1154 32.7541 34.1154 33.274C34.1154 34.2098 34.0114 34.8337 33.9074 35.2496L34.0114 35.3536C34.1154 34.9377 34.2194 34.3138 34.2194 33.274C34.2194 32.7541 34.1154 32.2342 33.9074 31.7143C33.5953 30.9864 33.5953 30.1545 33.8034 29.4267L34.5314 27.243C34.6354 26.8271 34.9475 26.4112 35.2595 25.9953C35.2595 25.4754 35.2595 25.0594 35.3635 24.5395L36.0916 22.252C36.1956 21.836 36.5076 21.4201 36.8197 21.0042V20.9002C36.8197 20.7962 36.8197 20.7962 36.8197 20.6922C34.9475 19.1325 33.5953 18.3007 32.7633 18.3007C31.9312 18.3007 30.683 19.0285 28.8109 20.5882V20.6922C28.8109 20.7962 28.8109 20.7962 28.8109 20.9002C29.1229 21.3161 29.3309 21.732 29.5389 22.148L30.267 24.4356C30.163 25.0594 30.267 25.4754 30.163 25.9953Z" fill="white"/>
<path d="M32.2432 64.4685C14.4574 64.4685 0 50.0151 0 32.2343C0 14.4534 14.4574 0 32.2432 0C50.029 0 64.4865 14.4534 64.4865 32.2343C64.4865 50.0151 50.029 64.4685 32.2432 64.4685ZM32.2432 2.07963C15.6016 2.07963 1.97619 15.5972 1.97619 32.3382C1.97619 48.9753 15.4976 62.5969 32.2432 62.5969C48.8849 62.5969 62.5103 49.0793 62.5103 32.3382C62.5103 15.5972 48.9889 2.07963 32.2432 2.07963Z" fill="white"/>
</svg>
