<svg width="65" height="65" viewBox="0 0 65 65" fill="none" xmlns="http://www.w3.org/2000/svg">
<path d="M28.6029 55.0061V50.9508C28.6029 50.5349 28.7069 50.119 28.9149 49.703C29.0189 49.5991 29.0189 49.3911 28.9149 49.2871C28.7069 48.8712 28.6029 48.4553 28.6029 48.0393C28.6029 47.6234 28.7069 47.2075 28.9149 46.7916C29.0189 46.6876 29.0189 46.4796 28.9149 46.3756C28.7069 45.9597 28.6029 45.5438 28.6029 45.1279C28.6029 44.608 28.8109 43.9841 29.123 43.5681C29.227 43.3602 29.227 43.2562 29.123 43.0482C28.8109 42.2164 28.6029 41.3845 28.6029 40.4487C28.6029 40.2407 28.6029 40.0328 28.6029 39.8248C28.6029 39.5129 28.4989 39.2009 28.6029 38.785V38.681L28.4989 38.577C27.6668 37.4332 27.1467 35.6655 27.1467 33.4819C27.1467 32.5461 27.2508 31.6103 27.5628 30.6744V30.5705L27.0427 28.9067L26.8347 29.0107C25.7946 29.4267 24.5465 29.6346 23.4024 29.6346C23.0904 29.6346 22.8823 29.6346 22.5703 29.6346H22.4663L22.3623 29.7386C21.7382 30.2585 20.6981 30.5705 19.554 30.5705C18.8259 30.5705 18.2018 30.4665 17.4738 30.2585C15.1855 29.6346 13.4174 28.0749 13.4174 26.5152V26.4112L13.3134 26.3072C13.0013 26.0992 12.7933 25.7873 12.4813 25.5793C11.6492 24.7475 11.1292 23.6037 11.1292 22.3559V20.2763C11.1292 19.1325 11.5452 17.9887 12.3773 17.1568C13.2094 16.325 14.4575 15.8051 15.8096 15.8051C16.7457 15.8051 17.7858 16.117 18.5139 16.533L23.0903 19.6524C23.2984 19.7564 23.5064 19.8604 23.8184 19.9643L24.1305 20.0683V19.7564C24.1305 19.2365 24.3385 18.8205 24.7545 18.5086C28.2909 15.4931 30.4751 14.2454 32.5553 14.2454C34.6355 14.2454 36.8197 15.3892 40.3561 18.5086C40.7721 18.8205 40.9801 19.2365 40.9801 19.7564V20.0683L41.2922 19.9643C41.5002 19.8604 41.8122 19.7564 42.0202 19.6524L46.8047 16.429C47.5328 15.9091 48.4689 15.7011 49.405 15.7011C49.821 15.7011 50.2371 15.7011 50.5491 15.8051C51.7972 16.117 52.9413 16.9489 53.5654 18.1967C53.8774 18.8205 54.0855 19.5484 54.0855 20.3803V22.3559C54.0855 23.4997 53.6694 24.6435 52.8373 25.4754C52.4213 25.8913 51.9012 26.4112 51.3812 26.7231H51.2772V26.8271C50.8611 27.9709 49.717 29.1147 48.3649 29.9466C47.2208 30.5705 46.0766 30.8824 45.0365 30.8824C43.8924 30.8824 42.9563 30.4665 42.5403 29.7386L42.4363 29.6346H42.3323C42.2283 29.6346 42.0202 29.6346 41.8122 29.6346C40.6681 29.6346 39.524 29.4267 38.3799 29.0107L38.1719 28.9067L37.6518 30.5705V30.6744C37.9638 31.5063 38.0678 32.4421 38.0678 33.4819C38.0678 35.6655 37.6518 37.4332 36.7157 38.577L36.8197 38.785V38.889C36.9237 39.2009 36.8197 39.5129 36.8197 39.8248C36.8197 40.0328 36.8197 40.2407 36.8197 40.4487C36.8197 41.3845 36.6117 42.3204 36.2997 43.0482C36.1957 43.1522 36.1957 43.3602 36.2997 43.5681C36.6117 44.0881 36.8197 44.608 36.8197 45.1279C36.8197 45.5438 36.7157 45.9597 36.5077 46.3756C36.4037 46.4796 36.4037 46.6876 36.5077 46.7916C36.7157 47.2075 36.8197 47.6234 36.8197 48.0393C36.8197 48.4553 36.7157 48.8712 36.5077 49.2871C36.4037 49.3911 36.4037 49.5991 36.5077 49.703C36.7157 50.119 36.8197 50.5349 36.8197 50.9508V55.0061H35.7796V50.9508C35.7796 50.6389 35.6756 50.4309 35.5716 50.119C35.3636 49.703 35.3636 49.2871 35.5716 48.8712C35.6756 48.5592 35.7796 48.3513 35.7796 48.0393C35.7796 47.7274 35.6756 47.5194 35.5716 47.2075C35.3636 46.7916 35.3636 46.3756 35.5716 45.9597C35.6756 45.6478 35.7796 45.4398 35.7796 45.1279C35.7796 44.7119 35.6756 44.4 35.4676 44.0881C35.1556 43.6721 35.1556 43.1522 35.3636 42.7363C35.6756 42.1124 35.8836 41.2805 35.8836 40.5527C35.8836 40.3447 35.8836 40.1368 35.8836 39.9288L35.9876 39.4089L35.1555 39.8248C35.0515 39.8248 35.0515 39.8248 34.9475 39.8248C34.7395 39.8248 34.6355 39.7208 34.5315 39.5129C34.4275 39.3049 34.5315 38.993 34.7395 38.889L36.0917 38.2651C36.9237 37.3292 37.3398 35.6655 37.3398 33.5859C37.3398 32.6501 37.1318 31.7142 36.8197 30.8824L36.7157 30.7784L37.6518 27.8669L38.2759 28.0749C39.42 28.5948 40.6681 28.9067 41.9162 28.9067C42.2283 28.9067 42.5403 28.9067 42.7483 28.9067H43.1644L43.2684 29.2187C43.2684 29.3227 43.2684 29.3227 43.3724 29.4267C43.6844 29.9466 44.3085 30.1545 45.1406 30.1545C46.0766 30.1545 47.0127 29.8426 48.0528 29.3227C49.301 28.5948 50.3411 27.555 50.6531 26.5152V26.4112L50.7571 26.3072C51.2772 25.8913 51.7972 25.4754 52.2133 24.9554C52.8373 24.3316 53.1494 23.3957 53.1494 22.4599V20.4842C53.1494 19.8604 53.0453 19.2365 52.7333 18.7166C52.2133 17.7807 51.3812 17.0529 50.3411 16.8449C50.029 16.7409 49.717 16.7409 49.405 16.7409C48.6769 16.7409 47.9488 16.9489 47.3248 17.3648L42.5403 20.5882C42.0202 21.0042 41.2922 21.2121 40.6681 21.2121C40.5641 21.2121 40.4601 21.2121 40.2521 21.2121L39.732 21.1081L40.1481 19.8604V19.7564C40.1481 19.5484 40.044 19.4444 39.836 19.3405C36.8197 16.8449 34.7395 15.2852 32.5553 15.2852C30.4751 15.2852 28.2909 16.7409 25.3786 19.3405C25.2746 19.4444 25.1706 19.6524 25.0665 19.7564V19.8604L25.4826 21.1081L24.9625 21.2121C24.8585 21.2121 24.7545 21.2121 24.5465 21.2121C23.8184 21.2121 23.1943 21.0042 22.6743 20.5882L18.0978 17.4688C17.4738 17.0529 16.7457 16.8449 15.9136 16.8449C14.7695 16.8449 13.8334 17.2608 13.1053 17.9887C12.4813 18.7166 12.1693 19.5484 12.1693 20.4842V22.5639C12.1693 23.4997 12.5853 24.4355 13.2094 25.1634C13.5214 25.4754 13.8334 25.7873 14.1454 26.0993L14.3535 26.3072V26.6192C14.2495 27.659 15.4976 29.1147 17.7858 29.7386C18.4099 29.9466 19.0339 30.0506 19.658 30.0506C20.6981 30.0506 21.6342 29.7386 22.0502 29.3227L22.2583 29.1147H22.4663C22.8823 29.1147 23.1944 29.2187 23.5064 29.2187C24.7545 29.2187 26.0026 28.9067 27.1467 28.3868L27.7708 28.0749L28.7069 30.9864L28.6029 31.0904C28.2909 31.9222 28.0829 32.858 28.0829 33.7939C28.0829 35.8735 28.4989 37.4332 29.331 38.473L30.6831 39.2009C30.7871 39.3049 30.8911 39.3049 30.8911 39.5129C30.8911 39.7208 30.8911 39.7208 30.8911 39.8248C30.7871 40.0328 30.6831 40.1368 30.4751 40.1368C30.3711 40.1368 30.3711 40.1368 30.2671 40.1368L29.435 39.7208V40.1368C29.435 40.3447 29.435 40.5527 29.435 40.7606C29.435 41.5925 29.643 42.3204 29.955 42.9442C30.163 43.3602 30.1631 43.8801 29.851 44.296C29.643 44.608 29.539 45.0239 29.539 45.3358C29.539 45.6478 29.643 45.8557 29.747 46.1677C29.955 46.5836 29.955 46.9995 29.747 47.4155C29.643 47.7274 29.539 47.9354 29.539 48.2473C29.539 48.5593 29.643 48.7672 29.747 49.0792C29.955 49.4951 29.955 49.911 29.747 50.3269C29.643 50.6389 29.539 50.8468 29.539 51.1588V55.2141H28.6029V55.0061Z" fill="#809CFF"/>
<path d="M29.955 55.422H28.2909V50.9508C28.2909 50.4309 28.3949 50.015 28.6029 49.5991V49.4951C28.3949 49.0792 28.2909 48.5592 28.2909 48.1433C28.2909 47.6234 28.3949 47.2075 28.6029 46.7916V46.6876C28.3949 46.2717 28.2909 45.7518 28.2909 45.3358C28.2909 44.7119 28.4989 44.0881 28.8109 43.5681C28.8109 43.4642 28.8109 43.4642 28.8109 43.4642C28.3949 42.6323 28.1869 41.6965 28.1869 40.6567C28.1869 40.4487 28.1869 40.3447 28.1869 40.1368C28.1869 39.8248 28.0829 39.4089 28.1869 39.0969C27.2508 37.8492 26.8347 36.0815 26.8347 33.7939C26.8347 32.7541 27.0428 31.8182 27.2508 30.9864L26.9387 29.8426C25.8986 30.2585 24.6505 30.4665 23.5064 30.4665C23.1944 30.4665 22.9863 30.4665 22.6743 30.4665C21.5302 31.4023 19.45 31.6103 17.4738 31.0904C15.0815 30.3625 13.2094 28.6988 13.1054 27.0351C12.7933 26.8271 12.5853 26.5152 12.3773 26.3072C11.4412 25.3714 10.9211 24.1236 10.9211 22.8758V20.7962C10.9211 19.5484 11.4412 18.3006 12.2733 17.3648C13.1053 16.429 14.5615 15.8051 16.0176 15.8051C17.0578 15.8051 18.0979 16.117 18.9299 16.6369L23.5064 19.7564C23.6104 19.8604 23.8184 19.9643 23.9224 19.9643C24.0265 19.4444 24.2345 18.9245 24.6505 18.6126C28.1869 15.4931 30.4751 14.2454 32.6593 14.2454C34.8435 14.2454 37.1318 15.4931 40.7721 18.6126C41.1882 18.9245 41.3962 19.4444 41.5002 19.9643C41.7082 19.8604 41.8122 19.8604 41.9162 19.7564L46.7007 16.533C47.8448 15.7011 49.405 15.4931 50.7571 15.8051C52.1093 16.117 53.2534 17.0529 53.9814 18.4046C54.2935 19.1325 54.5015 19.8604 54.5015 20.7962V22.7718C54.5015 24.0196 54.0855 25.2674 53.1494 26.2032C52.7333 26.7231 52.2133 27.1391 51.6932 27.555C51.1732 28.8028 50.0291 29.9466 48.5729 30.7784C47.4288 31.4023 46.1807 31.8182 45.0365 31.8182C43.7884 31.8182 42.7483 31.4023 42.2283 30.5705C40.8761 30.6744 39.628 30.4665 38.3799 29.9466L38.0679 31.0904C38.3799 32.0262 38.5879 32.962 38.5879 33.8979C38.5879 36.1855 38.1719 37.9531 37.2358 39.2009C37.3398 39.6168 37.2358 39.9288 37.2358 40.2407C37.2358 40.4487 37.2358 40.6567 37.2358 40.8646C37.2358 41.8005 37.0278 42.8403 36.6117 43.6721V43.7761C37.0278 44.296 37.1318 44.9199 37.1318 45.5438C37.1318 46.0637 37.0278 46.4796 36.8197 46.8955V46.9995C37.0278 47.4154 37.1318 47.9354 37.1318 48.3513C37.1318 48.8712 37.0278 49.2871 36.8197 49.703V49.807C37.0278 50.223 37.1318 50.7429 37.1318 51.1588V55.63H35.4676V51.1588C35.4676 50.9508 35.4676 50.7429 35.3636 50.5349C35.1556 50.015 35.1556 49.4951 35.3636 48.9752C35.4676 48.7672 35.5716 48.5592 35.5716 48.3513C35.5716 48.1433 35.5716 47.9354 35.4676 47.7274C35.2596 47.2075 35.2596 46.6876 35.4676 46.1677C35.5716 45.9597 35.6756 45.7517 35.6756 45.5438C35.6756 45.2318 35.5716 44.9199 35.3636 44.7119C35.0516 44.192 34.9475 43.5681 35.1556 42.9442C35.4676 42.3204 35.5716 41.5925 35.5716 40.8646C35.5716 40.6567 35.5716 40.5527 35.5716 40.4487L35.3636 40.5527C34.9475 40.7606 34.4275 40.5527 34.2195 40.1368C34.0114 39.7208 34.2195 39.2009 34.6355 38.993L35.8836 38.3691C36.6117 37.4332 37.0277 35.9775 37.0277 34.0018C37.0277 33.17 36.9237 32.2342 36.6117 31.5063L36.5077 31.1943L37.5478 27.7629L38.4839 28.1789C39.836 28.9068 41.2922 29.1147 42.7483 28.9067L43.4764 28.8028L43.6844 29.4267C43.6844 29.4267 43.6844 29.5306 43.7884 29.5306C43.9964 29.8426 44.5165 30.0506 45.2446 30.0506C46.0767 30.0506 47.0127 29.7386 47.9488 29.2187C49.197 28.5948 50.0291 27.555 50.3411 26.7231L50.4451 26.4112L50.6531 26.2032C51.1732 25.7873 51.6932 25.3714 52.1093 24.9554C52.6293 24.3316 52.9413 23.6037 52.9413 22.7718V20.7962C52.9413 20.1723 52.8373 19.6524 52.6293 19.2365C52.2133 18.4046 51.3812 17.7807 50.4451 17.4688C49.509 17.2608 48.5729 17.3648 47.7408 17.8847L42.9563 21.1081C42.2283 21.628 41.2922 21.836 40.4601 21.732L39.42 21.628L39.94 20.0683C39.94 19.9643 39.836 19.8604 39.836 19.8604C36.9237 17.3648 34.8435 15.9091 32.8673 15.9091C30.8911 15.9091 28.8109 17.3648 25.8986 19.8604C25.7946 19.9643 25.7946 19.9643 25.7946 20.0683L26.3147 21.628L25.2746 21.732C24.3385 21.836 23.5064 21.628 22.7783 21.1081L18.2019 17.9887C17.6818 17.6767 16.9537 17.4688 16.2257 17.4688C15.1856 17.4688 14.3535 17.7807 13.7294 18.4046C13.2094 19.0285 12.8973 19.8604 12.8973 20.6922V22.7718C12.8973 23.6037 13.2094 24.4355 13.8334 25.0594C14.1455 25.3714 14.4575 25.6833 14.7695 25.8913L15.1856 26.2032L15.0816 26.7231C14.9775 27.451 16.0177 28.8028 18.2019 29.4267C19.762 29.8426 21.5302 29.6346 22.0503 29.0107L22.3623 28.6988L22.7783 28.8028C23.1944 28.8028 23.5064 28.9067 23.8184 28.9067C24.9625 28.9067 26.2107 28.5948 27.2508 28.0749L28.2909 27.659L29.331 31.0904L29.227 31.4023C28.9149 32.2341 28.8109 33.066 28.8109 33.8979C28.8109 35.8735 29.227 37.3292 29.955 38.2651L31.2032 38.889C31.4112 38.993 31.5152 39.2009 31.6192 39.4089C31.7232 39.6168 31.7232 39.8248 31.6192 40.0328C31.4112 40.4487 30.8911 40.6567 30.4751 40.4487L30.2671 40.3447C30.2671 40.5527 30.2671 40.6567 30.2671 40.7606C30.2671 41.4885 30.3711 42.2164 30.6831 42.8403C30.9952 43.3602 30.8911 44.0881 30.5791 44.608C30.3711 44.9199 30.2671 45.1279 30.2671 45.4398C30.2671 45.6478 30.3711 45.8557 30.4751 46.0637C30.6831 46.5836 30.6831 47.1035 30.4751 47.6234C30.3711 47.8314 30.2671 48.0393 30.2671 48.2473C30.2671 48.4553 30.2671 48.6632 30.3711 48.8712C30.5791 49.3911 30.5791 49.911 30.3711 50.4309C30.2671 50.6389 30.1631 50.8468 30.1631 51.0548V55.422H29.955ZM29.227 54.5902V50.8468C29.227 50.5349 29.331 50.2229 29.435 49.911C29.539 49.5991 29.539 49.2871 29.435 48.9752C29.331 48.6632 29.227 48.3513 29.227 48.0393C29.227 47.7274 29.331 47.4155 29.435 47.1035C29.539 46.7916 29.539 46.4796 29.435 46.1677C29.331 45.8557 29.227 45.5438 29.227 45.2318C29.227 44.8159 29.331 44.296 29.643 43.9841C29.851 43.6721 29.851 43.2562 29.747 42.9442C29.435 42.2164 29.227 41.3845 29.227 40.5527C29.227 40.3447 29.227 40.2407 29.227 39.9288L29.123 38.785L30.5791 39.5129H30.6831L30.7871 39.0969L30.5791 39.4089L29.123 38.681C28.1869 37.6412 27.7708 35.8735 27.7708 33.7939C27.7708 32.858 27.9788 31.8182 28.2909 30.9864L27.4588 28.3868L27.2508 28.4908C26.1067 29.0107 24.7545 29.3227 23.5064 29.3227C23.1944 29.3227 22.7783 29.3227 22.3623 29.2187C21.5302 30.0505 19.658 30.3625 17.6818 29.8426C15.1856 29.1147 13.8334 27.451 14.0415 26.3072C13.6254 25.9953 13.3134 25.6833 13.0014 25.3714C12.2733 24.6435 11.8572 23.6037 11.8572 22.5639V20.4842C11.8572 19.4444 12.2733 18.5086 12.8973 17.6767C13.6254 16.9489 14.7695 16.429 15.9136 16.429C16.7457 16.429 17.6818 16.6369 18.3059 17.1568L22.8823 20.2763C23.5064 20.6922 24.2345 20.9002 24.9625 20.7962H25.0665L24.7545 19.9643V19.8604C24.8585 19.5484 24.9625 19.3405 25.1706 19.1325C28.1869 16.533 30.3711 15.0772 32.5553 15.0772C34.8435 15.0772 37.0278 16.5329 40.0441 19.2365C40.2521 19.4444 40.3561 19.6524 40.4601 19.9643V20.0683V20.1723L40.2521 20.9002H40.3561C41.0842 21.0042 41.8122 20.7962 42.4363 20.3803L47.2208 17.1568C48.1569 16.5329 49.405 16.325 50.5491 16.6369C51.6932 16.9489 52.6293 17.6767 53.1494 18.7166C53.4614 19.2365 53.5654 19.9643 53.5654 20.5882V22.5639C53.5654 23.6037 53.1494 24.5395 52.5253 25.2674C52.1093 25.7873 51.5892 26.2032 50.9652 26.6192C50.6531 27.659 49.613 28.8028 48.2609 29.6346C47.2208 30.2585 46.1807 30.5705 45.1406 30.5705C44.1005 30.5705 43.3724 30.2585 43.0604 29.6346C43.0604 29.5306 42.9563 29.4267 42.9563 29.4267V29.3227H42.8523C41.1882 29.5306 39.628 29.2187 38.1719 28.4908L37.8598 28.3868L37.1318 30.7784C37.4438 31.7143 37.6518 32.6501 37.6518 33.5859C37.6518 35.7695 37.2358 37.4332 36.2997 38.473L36.1957 38.577L34.8435 39.2009C34.8435 39.2009 34.7395 39.3049 34.8435 39.3049L34.9475 39.4089L36.5077 38.681L36.4037 39.8248C36.4037 40.0328 36.4037 40.2407 36.4037 40.4487C36.4037 41.2806 36.1957 42.1124 35.8836 42.8403C35.7796 43.1522 35.7796 43.5681 35.9876 43.8801C36.2997 44.296 36.4037 44.7119 36.4037 45.1279C36.4037 45.4398 36.2997 45.7517 36.1957 46.0637C36.0917 46.3756 36.0917 46.6876 36.1957 46.9995C36.2997 47.3115 36.4037 47.6234 36.4037 47.9354C36.4037 48.2473 36.2997 48.5592 36.1957 48.8712C36.0917 49.1831 36.0917 49.4951 36.1957 49.807C36.2997 50.119 36.4037 50.4309 36.4037 50.7429V54.4862H36.6117V50.7429C36.6117 50.4309 36.5077 50.015 36.4037 49.703C36.2997 49.4951 36.2997 49.1831 36.4037 48.8712C36.5077 48.5592 36.6117 48.1433 36.6117 47.8314C36.6117 47.5194 36.5077 47.1035 36.4037 46.7916C36.2997 46.5836 36.2997 46.2716 36.4037 45.9597C36.6117 45.6478 36.6117 45.2318 36.6117 44.9199C36.6117 44.4 36.5077 43.9841 36.1957 43.5681C35.9876 43.2562 35.9876 42.9443 36.0917 42.7363C36.4037 42.0084 36.6117 41.1766 36.6117 40.2407C36.6117 40.0328 36.6117 39.8248 36.7157 39.6168C36.7157 39.3049 36.8197 39.0969 36.7157 38.785V38.473L36.9237 38.2651C37.7558 37.2253 38.1719 35.5616 38.1719 33.378C38.1719 32.4421 38.0678 31.6103 37.7558 30.7784V30.6744V30.4665L38.3799 28.4908L39.004 28.6988C40.1481 29.2187 41.5002 29.4267 42.7483 29.3227H43.1644L43.3724 29.6346C43.7884 30.2585 44.5165 30.5705 45.5566 30.5705C46.5967 30.5705 47.6368 30.2585 48.6769 29.6346C50.029 28.9067 51.0692 27.7629 51.3812 26.7231V26.6192L51.4852 26.5152C52.0053 26.0992 52.5253 25.6833 52.9413 25.2674C53.6694 24.5395 54.0855 23.4997 54.0855 22.3559V20.3803C54.0855 19.6524 53.9814 18.9245 53.6694 18.4046C53.0454 17.2608 52.1093 16.533 50.9652 16.221C49.821 15.9091 48.5729 16.117 47.5328 16.8449L42.7483 20.0683C42.5403 20.2763 42.2283 20.3803 41.9162 20.4842L41.0842 20.6922V19.8604C41.0842 19.4444 40.8761 19.1325 40.5641 18.9245C37.1318 15.9091 34.9475 14.7653 32.9713 14.7653C30.9951 14.7653 28.9149 15.9091 25.4826 18.9245C25.1706 19.1325 25.0666 19.5484 24.9625 19.8604V20.6922L24.2345 20.4842C23.9224 20.3803 23.7144 20.2763 23.4024 20.0683L18.8259 17.0529C18.0979 16.6369 17.2658 16.325 16.3297 16.325C15.0816 16.325 13.8334 16.8449 13.1054 17.5728C12.3773 18.4046 11.9612 19.3404 11.9612 20.4842V22.5639C11.9612 23.7077 12.3773 24.7475 13.1054 25.4754C13.3134 25.6833 13.6254 25.9953 13.8334 26.2032L14.0415 26.4112V26.7231C14.0415 28.0749 15.7056 29.5306 17.8898 30.1545C19.658 30.6744 21.5302 30.4665 22.4663 29.7386L22.6743 29.5306H22.8823C23.1944 29.5306 23.4024 29.5306 23.7144 29.5306C24.8585 29.5306 26.0026 29.3227 26.9387 28.9067L27.5628 28.6988L28.1869 30.7784V30.8824C27.8748 31.8182 27.7708 32.6501 27.7708 33.5859C27.7708 35.7695 28.1869 37.3292 29.0189 38.473L29.227 38.681V38.993C29.227 39.3049 29.227 39.6168 29.227 39.9288C29.227 40.1368 29.227 40.3447 29.227 40.5527C29.227 41.3845 29.435 42.2164 29.747 42.9442C29.851 43.1522 29.851 43.4642 29.643 43.7761C29.331 44.192 29.227 44.7119 29.227 45.2318C29.227 45.5438 29.331 45.9597 29.435 46.2717C29.539 46.4796 29.539 46.7916 29.435 47.1035C29.227 47.4155 29.227 47.8314 29.227 48.1433C29.227 48.4553 29.331 48.8712 29.435 49.1831C29.539 49.3911 29.539 49.703 29.435 49.911C29.227 50.2229 29.227 50.6389 29.227 50.9508V54.5902Z" fill="#809CFF"/>
<path d="M29.955 55.422H28.2909V50.9508C28.2909 50.4309 28.3949 50.015 28.6029 49.5991V49.4951C28.3949 49.0792 28.2909 48.5592 28.2909 48.1433C28.2909 47.6234 28.3949 47.2075 28.6029 46.7916V46.6876C28.3949 46.2717 28.2909 45.7518 28.2909 45.3358C28.2909 44.7119 28.4989 44.0881 28.8109 43.5681C28.8109 43.4642 28.8109 43.4642 28.8109 43.4642C28.3949 42.6323 28.1869 41.6965 28.1869 40.6567C28.1869 40.4487 28.1869 40.3447 28.1869 40.1368C28.1869 39.8248 28.0829 39.4089 28.1869 39.0969C27.2508 37.8492 26.8347 36.0815 26.8347 33.7939C26.8347 32.7541 27.0428 31.8182 27.2508 30.9864L26.9387 29.8426C25.8986 30.2585 24.6505 30.4665 23.5064 30.4665C23.1944 30.4665 22.9863 30.4665 22.6743 30.4665C21.5302 31.4023 19.45 31.6103 17.4738 31.0904C15.0815 30.3625 13.2094 28.6988 13.1054 27.0351C12.7933 26.8271 12.5853 26.5152 12.3773 26.3072C11.4412 25.3714 10.9211 24.1236 10.9211 22.8758V20.7962C10.9211 19.5484 11.4412 18.3006 12.2733 17.3648C13.1053 16.429 14.5615 15.8051 16.0176 15.8051C17.0578 15.8051 18.0979 16.117 18.9299 16.6369L23.5064 19.7564C23.6104 19.8604 23.8184 19.9643 23.9224 19.9643C24.0265 19.4444 24.2345 18.9245 24.6505 18.6126C28.1869 15.4931 30.4751 14.2454 32.6593 14.2454C34.8435 14.2454 37.1318 15.4931 40.7721 18.6126C41.1882 18.9245 41.3962 19.4444 41.5002 19.9643C41.7082 19.8604 41.8122 19.8604 41.9162 19.7564L46.7007 16.533C47.8448 15.7011 49.405 15.4931 50.7571 15.8051C52.1093 16.117 53.2534 17.0529 53.9814 18.4046C54.2935 19.1325 54.5015 19.8604 54.5015 20.7962V22.7718C54.5015 24.0196 54.0855 25.2674 53.1494 26.2032C52.7333 26.7231 52.2133 27.1391 51.6932 27.555C51.1732 28.8028 50.0291 29.9466 48.5729 30.7784C47.4288 31.4023 46.1807 31.8182 45.0365 31.8182C43.7884 31.8182 42.7483 31.4023 42.2283 30.5705C40.8761 30.6744 39.628 30.4665 38.3799 29.9466L38.0679 31.0904C38.3799 32.0262 38.5879 32.962 38.5879 33.8979C38.5879 36.1855 38.1719 37.9531 37.2358 39.2009C37.3398 39.6168 37.2358 39.9288 37.2358 40.2407C37.2358 40.4487 37.2358 40.6567 37.2358 40.8646C37.2358 41.8005 37.0278 42.8403 36.6117 43.6721V43.7761C37.0278 44.296 37.1318 44.9199 37.1318 45.5438C37.1318 46.0637 37.0278 46.4796 36.8197 46.8955V46.9995C37.0278 47.4154 37.1318 47.9354 37.1318 48.3513C37.1318 48.8712 37.0278 49.2871 36.8197 49.703V49.807C37.0278 50.223 37.1318 50.7429 37.1318 51.1588V55.63H35.4676V51.1588C35.4676 50.9508 35.4676 50.7429 35.3636 50.5349C35.1556 50.015 35.1556 49.4951 35.3636 48.9752C35.4676 48.7672 35.5716 48.5592 35.5716 48.3513C35.5716 48.1433 35.5716 47.9354 35.4676 47.7274C35.2596 47.2075 35.2596 46.6876 35.4676 46.1677C35.5716 45.9597 35.6756 45.7517 35.6756 45.5438C35.6756 45.2318 35.5716 44.9199 35.3636 44.7119C35.0516 44.192 34.9475 43.5681 35.1556 42.9442C35.4676 42.3204 35.5716 41.5925 35.5716 40.8646C35.5716 40.6567 35.5716 40.5527 35.5716 40.4487L35.3636 40.5527C34.9475 40.7606 34.4275 40.5527 34.2195 40.1368C34.0114 39.7208 34.2195 39.2009 34.6355 38.993L35.8836 38.3691C36.6117 37.4332 37.0277 35.9775 37.0277 34.0018C37.0277 33.17 36.9237 32.2342 36.6117 31.5063L36.5077 31.1943L37.5478 27.7629L38.4839 28.1789C39.836 28.9068 41.2922 29.1147 42.7483 28.9067L43.4764 28.8028L43.6844 29.4267C43.6844 29.4267 43.6844 29.5306 43.7884 29.5306C43.9964 29.8426 44.5165 30.0506 45.2446 30.0506C46.0767 30.0506 47.0127 29.7386 47.9488 29.2187C49.197 28.5948 50.0291 27.555 50.3411 26.7231L50.4451 26.4112L50.6531 26.2032C51.1732 25.7873 51.6932 25.3714 52.1093 24.9554C52.6293 24.3316 52.9413 23.6037 52.9413 22.7718V20.7962C52.9413 20.1723 52.8373 19.6524 52.6293 19.2365C52.2133 18.4046 51.3812 17.7807 50.4451 17.4688C49.509 17.2608 48.5729 17.3648 47.7408 17.8847L42.9563 21.1081C42.2283 21.628 41.2922 21.836 40.4601 21.732L39.42 21.628L39.94 20.0683C39.94 19.9643 39.836 19.8604 39.836 19.8604C36.9237 17.3648 34.8435 15.9091 32.8673 15.9091C30.8911 15.9091 28.8109 17.3648 25.8986 19.8604C25.7946 19.9643 25.7946 19.9643 25.7946 20.0683L26.3147 21.628L25.2746 21.732C24.3385 21.836 23.5064 21.628 22.7783 21.1081L18.2019 17.9887C17.6818 17.6767 16.9537 17.4688 16.2257 17.4688C15.1856 17.4688 14.3535 17.7807 13.7294 18.4046C13.2094 19.0285 12.8973 19.8604 12.8973 20.6922V22.7718C12.8973 23.6037 13.2094 24.4355 13.8334 25.0594C14.1455 25.3714 14.4575 25.6833 14.7695 25.8913L15.1856 26.2032L15.0816 26.7231C14.9775 27.451 16.0177 28.8028 18.2019 29.4267C19.762 29.8426 21.5302 29.6346 22.0503 29.0107L22.3623 28.6988L22.7783 28.8028C23.1944 28.8028 23.5064 28.9067 23.8184 28.9067C24.9625 28.9067 26.2107 28.5948 27.2508 28.0749L28.2909 27.659L29.331 31.0904L29.227 31.4023C28.9149 32.2341 28.8109 33.066 28.8109 33.8979C28.8109 35.8735 29.227 37.3292 29.955 38.2651L31.2032 38.889C31.4112 38.993 31.5152 39.2009 31.6192 39.4089C31.7232 39.6168 31.7232 39.8248 31.6192 40.0328C31.4112 40.4487 30.8911 40.6567 30.4751 40.4487L30.2671 40.3447C30.2671 40.5527 30.2671 40.6567 30.2671 40.7606C30.2671 41.4885 30.3711 42.2164 30.6831 42.8403C30.9952 43.3602 30.8911 44.0881 30.5791 44.608C30.3711 44.9199 30.2671 45.1279 30.2671 45.4398C30.2671 45.6478 30.3711 45.8557 30.4751 46.0637C30.6831 46.5836 30.6831 47.1035 30.4751 47.6234C30.3711 47.8314 30.2671 48.0393 30.2671 48.2473C30.2671 48.4553 30.2671 48.6632 30.3711 48.8712C30.5791 49.3911 30.5791 49.911 30.3711 50.4309C30.2671 50.6389 30.1631 50.8468 30.1631 51.0548V55.422H29.955ZM29.227 54.5902V50.8468C29.227 50.5349 29.331 50.2229 29.435 49.911C29.539 49.5991 29.539 49.2871 29.435 48.9752C29.331 48.6632 29.227 48.3513 29.227 48.0393C29.227 47.7274 29.331 47.4155 29.435 47.1035C29.539 46.7916 29.539 46.4796 29.435 46.1677C29.331 45.8557 29.227 45.5438 29.227 45.2318C29.227 44.8159 29.331 44.296 29.643 43.9841C29.851 43.6721 29.851 43.2562 29.747 42.9442C29.435 42.2164 29.227 41.3845 29.227 40.5527C29.227 40.3447 29.227 40.2407 29.227 39.9288L29.123 38.785L30.5791 39.5129H30.6831L30.7871 39.0969L30.5791 39.4089L29.123 38.681C28.1869 37.6412 27.7708 35.8735 27.7708 33.7939C27.7708 32.858 27.9788 31.8182 28.2909 30.9864L27.4588 28.3868L27.2508 28.4908C26.1067 29.0107 24.7545 29.3227 23.5064 29.3227C23.1944 29.3227 22.7783 29.3227 22.3623 29.2187C21.5302 30.0505 19.658 30.3625 17.6818 29.8426C15.1856 29.1147 13.8334 27.451 14.0415 26.3072C13.6254 25.9953 13.3134 25.6833 13.0014 25.3714C12.2733 24.6435 11.8572 23.6037 11.8572 22.5639V20.4842C11.8572 19.4444 12.2733 18.5086 12.8973 17.6767C13.6254 16.9489 14.7695 16.429 15.9136 16.429C16.7457 16.429 17.6818 16.6369 18.3059 17.1568L22.8823 20.2763C23.5064 20.6922 24.2345 20.9002 24.9625 20.7962H25.0665L24.7545 19.9643V19.8604C24.8585 19.5484 24.9625 19.3405 25.1706 19.1325C28.1869 16.533 30.3711 15.0772 32.5553 15.0772C34.8435 15.0772 37.0278 16.5329 40.0441 19.2365C40.2521 19.4444 40.3561 19.6524 40.4601 19.9643V20.0683V20.1723L40.2521 20.9002H40.3561C41.0842 21.0042 41.8122 20.7962 42.4363 20.3803L47.2208 17.1568C48.1569 16.5329 49.405 16.325 50.5491 16.6369C51.6932 16.9489 52.6293 17.6767 53.1494 18.7166C53.4614 19.2365 53.5654 19.9643 53.5654 20.5882V22.5639C53.5654 23.6037 53.1494 24.5395 52.5253 25.2674C52.1093 25.7873 51.5892 26.2032 50.9652 26.6192C50.6531 27.659 49.613 28.8028 48.2609 29.6346C47.2208 30.2585 46.1807 30.5705 45.1406 30.5705C44.1005 30.5705 43.3724 30.2585 43.0604 29.6346C43.0604 29.5306 42.9563 29.4267 42.9563 29.4267V29.3227H42.8523C41.1882 29.5306 39.628 29.2187 38.1719 28.4908L37.8598 28.3868L37.1318 30.7784C37.4438 31.7143 37.6518 32.6501 37.6518 33.5859C37.6518 35.7695 37.2358 37.4332 36.2997 38.473L36.1957 38.577L34.8435 39.2009C34.8435 39.2009 34.7395 39.3049 34.8435 39.3049L34.9475 39.4089L36.5077 38.681L36.4037 39.8248C36.4037 40.0328 36.4037 40.2407 36.4037 40.4487C36.4037 41.2806 36.1957 42.1124 35.8836 42.8403C35.7796 43.1522 35.7796 43.5681 35.9876 43.8801C36.2997 44.296 36.4037 44.7119 36.4037 45.1279C36.4037 45.4398 36.2997 45.7517 36.1957 46.0637C36.0917 46.3756 36.0917 46.6876 36.1957 46.9995C36.2997 47.3115 36.4037 47.6234 36.4037 47.9354C36.4037 48.2473 36.2997 48.5592 36.1957 48.8712C36.0917 49.1831 36.0917 49.4951 36.1957 49.807C36.2997 50.119 36.4037 50.4309 36.4037 50.7429V54.4862H36.6117V50.7429C36.6117 50.4309 36.5077 50.015 36.4037 49.703C36.2997 49.4951 36.2997 49.1831 36.4037 48.8712C36.5077 48.5592 36.6117 48.1433 36.6117 47.8314C36.6117 47.5194 36.5077 47.1035 36.4037 46.7916C36.2997 46.5836 36.2997 46.2716 36.4037 45.9597C36.6117 45.6478 36.6117 45.2318 36.6117 44.9199C36.6117 44.4 36.5077 43.9841 36.1957 43.5681C35.9876 43.2562 35.9876 42.9443 36.0917 42.7363C36.4037 42.0084 36.6117 41.1766 36.6117 40.2407C36.6117 40.0328 36.6117 39.8248 36.7157 39.6168C36.7157 39.3049 36.8197 39.0969 36.7157 38.785V38.473L36.9237 38.2651C37.7558 37.2253 38.1719 35.5616 38.1719 33.378C38.1719 32.4421 38.0678 31.6103 37.7558 30.7784V30.6744V30.4665L38.3799 28.4908L39.004 28.6988C40.1481 29.2187 41.5002 29.4267 42.7483 29.3227H43.1644L43.3724 29.6346C43.7884 30.2585 44.5165 30.5705 45.5566 30.5705C46.5967 30.5705 47.6368 30.2585 48.6769 29.6346C50.029 28.9067 51.0692 27.7629 51.3812 26.7231V26.6192L51.4852 26.5152C52.0053 26.0992 52.5253 25.6833 52.9413 25.2674C53.6694 24.5395 54.0855 23.4997 54.0855 22.3559V20.3803C54.0855 19.6524 53.9814 18.9245 53.6694 18.4046C53.0454 17.2608 52.1093 16.533 50.9652 16.221C49.821 15.9091 48.5729 16.117 47.5328 16.8449L42.7483 20.0683C42.5403 20.2763 42.2283 20.3803 41.9162 20.4842L41.0842 20.6922V19.8604C41.0842 19.4444 40.8761 19.1325 40.5641 18.9245C37.1318 15.9091 34.9475 14.7653 32.9713 14.7653C30.9951 14.7653 28.9149 15.9091 25.4826 18.9245C25.1706 19.1325 25.0666 19.5484 24.9625 19.8604V20.6922L24.2345 20.4842C23.9224 20.3803 23.7144 20.2763 23.4024 20.0683L18.8259 17.0529C18.0979 16.6369 17.2658 16.325 16.3297 16.325C15.0816 16.325 13.8334 16.8449 13.1054 17.5728C12.3773 18.4046 11.9612 19.3404 11.9612 20.4842V22.5639C11.9612 23.7077 12.3773 24.7475 13.1054 25.4754C13.3134 25.6833 13.6254 25.9953 13.8334 26.2032L14.0415 26.4112V26.7231C14.0415 28.0749 15.7056 29.5306 17.8898 30.1545C19.658 30.6744 21.5302 30.4665 22.4663 29.7386L22.6743 29.5306H22.8823C23.1944 29.5306 23.4024 29.5306 23.7144 29.5306C24.8585 29.5306 26.0026 29.3227 26.9387 28.9067L27.5628 28.6988L28.1869 30.7784V30.8824C27.8748 31.8182 27.7708 32.6501 27.7708 33.5859C27.7708 35.7695 28.1869 37.3292 29.0189 38.473L29.227 38.681V38.993C29.227 39.3049 29.227 39.6168 29.227 39.9288C29.227 40.1368 29.227 40.3447 29.227 40.5527C29.227 41.3845 29.435 42.2164 29.747 42.9442C29.851 43.1522 29.851 43.4642 29.643 43.7761C29.331 44.192 29.227 44.7119 29.227 45.2318C29.227 45.5438 29.331 45.9597 29.435 46.2717C29.539 46.4796 29.539 46.7916 29.435 47.1035C29.227 47.4155 29.227 47.8314 29.227 48.1433C29.227 48.4553 29.331 48.8712 29.435 49.1831C29.539 49.3911 29.539 49.703 29.435 49.911C29.227 50.2229 29.227 50.6389 29.227 50.9508V54.5902Z" fill="#809CFF"/>
<path d="M17.0577 23.9157C17.6817 23.9157 18.4098 24.0197 19.1379 24.2276C20.178 24.5396 21.1141 24.9555 21.8422 25.5794L22.1542 25.6833C22.4662 25.7873 22.8823 25.7873 23.2983 25.7873C24.0264 25.7873 24.8585 25.5794 25.5865 25.2674L25.7945 25.1634L25.3785 23.7077H25.1705C24.9625 23.7077 24.7544 23.7077 24.5464 23.7077C23.2983 23.7077 22.1542 23.3958 21.1141 22.6679L16.4336 19.6524C16.3296 19.5484 16.1216 19.5484 16.0176 19.5484C15.8096 19.5484 15.6015 19.6524 15.4975 19.7564C15.3935 19.8604 15.2895 20.0684 15.2895 20.2763V22.252C15.2895 22.4599 15.3935 22.6679 15.4975 22.7719C15.8096 23.0838 16.2256 23.3958 16.6416 23.7077H16.7456H16.8497C16.7457 23.9157 16.8497 23.9157 17.0577 23.9157ZM23.2983 26.7232C22.8823 26.7232 22.4662 26.7232 21.9462 26.6192L21.4261 26.5152L21.3221 26.4112C20.6981 25.8913 19.866 25.3714 18.8259 25.1634C18.2018 24.9555 17.5777 24.9555 17.0577 24.9555C16.8497 24.9555 16.6416 24.9555 16.4336 24.9555H16.2256L16.1216 24.8515C15.4975 24.4356 14.9775 24.1236 14.6654 23.7077C14.3534 23.3958 14.1454 22.9798 14.1454 22.5639V20.5883C14.1454 20.1723 14.3534 19.7564 14.6654 19.4445C14.9775 19.1325 15.3935 18.9246 15.9136 18.9246C16.2256 18.9246 16.5376 19.0285 16.8497 19.2365L21.5301 22.252C22.3622 22.7719 23.4023 23.0838 24.4424 23.0838C24.7545 23.0838 25.1705 23.0838 25.4825 22.9798L25.8986 22.8759L26.8347 25.8913L26.0026 26.2033C25.1705 26.5152 24.2344 26.7232 23.2983 26.7232Z" fill="#809CFF"/>
<path d="M23.2983 27.0351C22.7783 27.0351 22.3622 27.0351 21.9462 26.9311L21.3221 26.8271L21.1141 26.7231C20.49 26.2032 19.762 25.7873 18.8259 25.4754C18.0978 25.2674 17.2657 25.1634 16.5377 25.2674H16.2256L16.0176 25.1634C15.3935 24.7475 14.8735 24.3316 14.4574 23.9156C14.0414 23.4997 13.8334 22.9798 13.8334 22.4599V20.4842C13.8334 19.9643 14.0414 19.4444 14.4574 19.0285C15.0815 18.4046 16.2256 18.1967 17.0577 18.8206L21.7382 21.836C22.7783 22.5639 24.1304 22.7718 25.4826 22.5639L26.2106 22.4599L27.3547 26.0993L26.2106 26.6192C25.2745 26.8271 24.2344 27.0351 23.2983 27.0351ZM21.5302 26.0993L22.0502 26.2032C23.2983 26.5152 24.6505 26.3072 25.7946 25.7873L26.3146 25.5793L25.5866 23.2918H25.4826C24.0264 23.6037 22.4662 23.2918 21.2181 22.4599L16.5377 19.4444C16.0176 19.1325 15.2895 19.1325 14.8735 19.6524C14.6655 19.8604 14.4574 20.1723 14.4574 20.5882V22.5639C14.4574 22.8758 14.5614 23.1878 14.8735 23.4997C15.2895 23.9156 15.7056 24.2276 16.3296 24.6435C17.1617 24.5395 17.9938 24.6435 18.8259 24.8515C19.97 24.9555 20.9061 25.4754 21.5302 26.0993ZM23.2983 26.2032C22.8823 26.2032 22.4662 26.2032 22.1542 26.0993L21.7382 25.9953L21.6342 25.8913C20.9061 25.2674 20.074 24.8515 19.0339 24.5395C18.2018 24.3316 17.3697 24.2276 16.6417 24.3316H16.5377L16.3296 24.2276C15.8096 23.9156 15.3935 23.6037 15.0815 23.1878C14.8735 22.9798 14.7695 22.6679 14.7695 22.3559V20.3803C14.7695 20.0683 14.8735 19.7564 15.0815 19.5484C15.4976 19.1325 16.1216 19.1325 16.5377 19.4444L21.2181 22.4599C22.3622 23.1878 23.7144 23.4997 25.0665 23.3957L25.5866 23.2918L26.2106 25.3714L25.6906 25.5793C24.9625 25.9953 24.1304 26.2032 23.2983 26.2032ZM21.9462 25.2674H22.1542C23.1943 25.4754 24.2344 25.3714 25.1705 24.9555L24.8585 24.1236C23.4023 24.2276 21.9462 23.9156 20.5941 23.0838L15.9136 20.0683C15.7056 19.9643 15.4975 19.9643 15.3935 20.1723C15.2895 20.2763 15.2895 20.3803 15.2895 20.4842V22.4599C15.2895 22.5639 15.2895 22.6679 15.3935 22.7718C15.7056 23.0838 16.0176 23.3957 16.4336 23.6037C16.6417 23.6037 16.7457 23.6037 16.8497 23.6037C17.5778 23.6037 18.3058 23.7077 19.0339 23.9156C20.282 24.1236 21.2181 24.6435 21.9462 25.2674Z" fill="#809CFF"/>
<path d="M23.2983 27.0351C22.7783 27.0351 22.3622 27.0351 21.9462 26.9311L21.3221 26.8271L21.1141 26.7231C20.49 26.2032 19.762 25.7873 18.8259 25.4754C18.0978 25.2674 17.2657 25.1634 16.5377 25.2674H16.2256L16.0176 25.1634C15.3935 24.7475 14.8735 24.3316 14.4574 23.9156C14.0414 23.4997 13.8334 22.9798 13.8334 22.4599V20.4842C13.8334 19.9643 14.0414 19.4444 14.4574 19.0285C15.0815 18.4046 16.2256 18.1967 17.0577 18.8206L21.7382 21.836C22.7783 22.5639 24.1304 22.7718 25.4826 22.5639L26.2106 22.4599L27.3547 26.0993L26.2106 26.6192C25.2745 26.8271 24.2344 27.0351 23.2983 27.0351ZM21.5302 26.0993L22.0502 26.2032C23.2983 26.5152 24.6505 26.3072 25.7946 25.7873L26.3146 25.5793L25.5866 23.2918H25.4826C24.0264 23.6037 22.4662 23.2918 21.2181 22.4599L16.5377 19.4444C16.0176 19.1325 15.2895 19.1325 14.8735 19.6524C14.6655 19.8604 14.4574 20.1723 14.4574 20.5882V22.5639C14.4574 22.8758 14.5614 23.1878 14.8735 23.4997C15.2895 23.9156 15.7056 24.2276 16.3296 24.6435C17.1617 24.5395 17.9938 24.6435 18.8259 24.8515C19.97 24.9555 20.9061 25.4754 21.5302 26.0993ZM23.2983 26.2032C22.8823 26.2032 22.4662 26.2032 22.1542 26.0993L21.7382 25.9953L21.6342 25.8913C20.9061 25.2674 20.074 24.8515 19.0339 24.5395C18.2018 24.3316 17.3697 24.2276 16.6417 24.3316H16.5377L16.3296 24.2276C15.8096 23.9156 15.3935 23.6037 15.0815 23.1878C14.8735 22.9798 14.7695 22.6679 14.7695 22.3559V20.3803C14.7695 20.0683 14.8735 19.7564 15.0815 19.5484C15.4976 19.1325 16.1216 19.1325 16.5377 19.4444L21.2181 22.4599C22.3622 23.1878 23.7144 23.4997 25.0665 23.3957L25.5866 23.2918L26.2106 25.3714L25.6906 25.5793C24.9625 25.9953 24.1304 26.2032 23.2983 26.2032ZM21.9462 25.2674H22.1542C23.1943 25.4754 24.2344 25.3714 25.1705 24.9555L24.8585 24.1236C23.4023 24.2276 21.9462 23.9156 20.5941 23.0838L15.9136 20.0683C15.7056 19.9643 15.4975 19.9643 15.3935 20.1723C15.2895 20.2763 15.2895 20.3803 15.2895 20.4842V22.4599C15.2895 22.5639 15.2895 22.6679 15.3935 22.7718C15.7056 23.0838 16.0176 23.3957 16.4336 23.6037C16.6417 23.6037 16.7457 23.6037 16.8497 23.6037C17.5778 23.6037 18.3058 23.7077 19.0339 23.9156C20.282 24.1236 21.2181 24.6435 21.9462 25.2674Z" fill="#809CFF"/>
<path d="M39.628 25.1634L39.836 25.2674C40.5641 25.5793 41.2922 25.7873 42.1243 25.7873C42.5403 25.7873 42.8523 25.7873 43.2684 25.6833L44.1004 25.4754C44.5165 25.0594 44.9325 24.7475 45.4526 24.5395C46.4927 23.9156 47.6368 23.6037 48.6769 23.6037C48.8849 23.6037 48.9889 23.6037 49.1969 23.6037H49.301L49.405 23.4997C49.613 23.2918 49.821 23.0838 50.029 22.9798C50.133 22.8758 50.2371 22.6679 50.2371 22.4599V20.4843C50.2371 20.2763 50.133 20.0683 50.029 19.9644C49.925 19.8604 49.717 19.7564 49.509 19.7564C49.301 19.7564 49.197 19.7564 49.0929 19.8604L44.4125 22.8758C43.3724 23.4997 42.2283 23.9156 40.9801 23.9156C40.7721 23.9156 40.5641 23.9156 40.3561 23.9156H40.148L39.628 25.1634ZM42.1243 26.7231C41.1882 26.7231 40.2521 26.5152 39.42 26.0993L38.5879 25.7873L39.524 22.7719L39.94 22.8758C40.2521 22.9798 40.6681 22.9798 40.9801 22.9798C42.0202 22.9798 43.0603 22.6679 43.8924 22.148L48.5729 19.1325C48.8849 18.9245 49.197 18.8206 49.509 18.8206C49.925 18.8206 50.4451 19.0285 50.7571 19.3405C51.0691 19.6524 51.2772 20.0683 51.2772 20.4843V22.4599C51.2772 22.8758 51.0691 23.2918 50.7571 23.6037C50.4451 23.9156 50.133 24.1236 49.821 24.4356L49.613 24.5395H49.405C49.197 24.5395 48.9889 24.4356 48.7809 24.4356C47.9488 24.4356 46.9087 24.7475 45.9726 25.2674C45.4526 25.5793 45.0365 25.8913 44.6205 26.2032L44.5165 26.3072L43.3724 26.5152C42.9563 26.6192 42.5403 26.7231 42.1243 26.7231Z" fill="#809CFF"/>
<path d="M42.1242 27.0352C41.0841 27.0352 40.148 26.8272 39.2119 26.4113L38.0677 25.8914L39.2119 22.252L39.9399 22.356C41.1881 22.564 42.5402 22.356 43.6843 21.6281L48.3648 18.6127C49.1969 18.0928 50.341 18.1967 50.965 18.8206C51.3811 19.2366 51.5891 19.7565 51.5891 20.2764V22.252C51.5891 22.7719 51.3811 23.2918 50.965 23.7078C50.653 24.0197 50.341 24.3317 49.9249 24.5396L49.6129 24.7476L49.1969 24.6436C48.2608 24.4356 47.1167 24.7476 45.9725 25.3715C45.4525 25.6834 45.0365 25.8914 44.7244 26.3073L44.5164 26.5153L43.2683 26.8272C43.0602 27.0352 42.5402 27.0352 42.1242 27.0352ZM39.0039 25.4754L39.5239 25.6834C40.668 26.3073 42.1242 26.4113 43.2683 26.2033L44.3084 25.9954C44.7244 25.5794 45.2445 25.2675 45.7645 24.9555C47.0127 24.2277 48.4688 24.0197 49.5089 24.1237C49.8209 23.8117 50.133 23.6038 50.445 23.2918C50.653 23.0839 50.861 22.7719 50.861 22.356V20.3804C50.861 20.0684 50.757 19.7565 50.445 19.4445C50.029 19.0286 49.3009 18.9246 48.7808 19.2366L44.1004 22.252C42.8522 23.0839 41.2921 23.3958 39.8359 23.0839H39.7319L39.0039 25.4754ZM42.1242 26.2033C41.2921 26.2033 40.46 25.9953 39.7319 25.6834L39.2119 25.4754L39.8359 23.3958L40.356 23.4998C41.7081 23.6038 43.0603 23.2918 44.2044 22.564L48.8848 19.5485C49.3009 19.2366 50.0289 19.3405 50.341 19.6525C50.549 19.8604 50.653 20.1724 50.653 20.4843V22.46C50.653 22.7719 50.549 23.0839 50.341 23.2918C50.133 23.4998 49.9249 23.7078 49.7169 23.9157L49.5089 24.1237H49.3009C48.2608 24.0197 47.0127 24.3316 45.7645 24.9555C45.2445 25.2675 44.8284 25.5794 44.4124 25.8914L44.3084 25.9954L44.2044 26.0993L43.3723 26.3073C42.9562 26.0993 42.5402 26.2033 42.1242 26.2033ZM40.148 24.9555C41.0841 25.3715 42.1242 25.4754 43.1643 25.2675L43.8923 25.0595C44.3084 24.6436 44.8284 24.3317 45.3485 24.0197C46.7006 23.2918 48.0528 22.9799 49.3009 23.0839C49.5089 22.8759 49.7169 22.7719 49.8209 22.564C49.9249 22.46 49.9249 22.356 49.9249 22.252V20.2764C49.9249 20.1724 49.9249 20.0684 49.8209 19.9644C49.7169 19.8604 49.4049 19.7565 49.3009 19.9644L44.6204 22.9799C43.3723 23.8117 41.9161 24.2277 40.356 24.0197L40.148 24.9555Z" fill="#809CFF"/>
<path d="M42.1242 27.0352C41.0841 27.0352 40.148 26.8272 39.2119 26.4113L38.0677 25.8914L39.2119 22.252L39.9399 22.356C41.1881 22.564 42.5402 22.356 43.6843 21.6281L48.3648 18.6127C49.1969 18.0928 50.341 18.1967 50.965 18.8206C51.3811 19.2366 51.5891 19.7565 51.5891 20.2764V22.252C51.5891 22.7719 51.3811 23.2918 50.965 23.7078C50.653 24.0197 50.341 24.3317 49.9249 24.5396L49.6129 24.7476L49.1969 24.6436C48.2608 24.4356 47.1167 24.7476 45.9725 25.3715C45.4525 25.6834 45.0365 25.8914 44.7244 26.3073L44.5164 26.5153L43.2683 26.8272C43.0602 27.0352 42.5402 27.0352 42.1242 27.0352ZM39.0039 25.4754L39.5239 25.6834C40.668 26.3073 42.1242 26.4113 43.2683 26.2033L44.3084 25.9954C44.7244 25.5794 45.2445 25.2675 45.7645 24.9555C47.0127 24.2277 48.4688 24.0197 49.5089 24.1237C49.8209 23.8117 50.133 23.6038 50.445 23.2918C50.653 23.0839 50.861 22.7719 50.861 22.356V20.3804C50.861 20.0684 50.757 19.7565 50.445 19.4445C50.029 19.0286 49.3009 18.9246 48.7808 19.2366L44.1004 22.252C42.8522 23.0839 41.2921 23.3958 39.8359 23.0839H39.7319L39.0039 25.4754ZM42.1242 26.2033C41.2921 26.2033 40.46 25.9953 39.7319 25.6834L39.2119 25.4754L39.8359 23.3958L40.356 23.4998C41.7081 23.6038 43.0603 23.2918 44.2044 22.564L48.8848 19.5485C49.3009 19.2366 50.0289 19.3405 50.341 19.6525C50.549 19.8604 50.653 20.1724 50.653 20.4843V22.46C50.653 22.7719 50.549 23.0839 50.341 23.2918C50.133 23.4998 49.9249 23.7078 49.7169 23.9157L49.5089 24.1237H49.3009C48.2608 24.0197 47.0127 24.3316 45.7645 24.9555C45.2445 25.2675 44.8284 25.5794 44.4124 25.8914L44.3084 25.9954L44.2044 26.0993L43.3723 26.3073C42.9562 26.0993 42.5402 26.2033 42.1242 26.2033ZM40.148 24.9555C41.0841 25.3715 42.1242 25.4754 43.1643 25.2675L43.8923 25.0595C44.3084 24.6436 44.8284 24.3317 45.3485 24.0197C46.7006 23.2918 48.0528 22.9799 49.3009 23.0839C49.5089 22.8759 49.7169 22.7719 49.8209 22.564C49.9249 22.46 49.9249 22.356 49.9249 22.252V20.2764C49.9249 20.1724 49.9249 20.0684 49.8209 19.9644C49.7169 19.8604 49.4049 19.7565 49.3009 19.9644L44.6204 22.9799C43.3723 23.8117 41.9161 24.2277 40.356 24.0197L40.148 24.9555Z" fill="#809CFF"/>
<path d="M31.3071 35.9776C31.099 35.6656 30.891 34.8338 30.891 33.274C30.891 32.6502 30.995 32.1303 31.2031 31.6104C31.4111 30.9865 31.4111 30.2586 31.3071 29.6347L30.579 27.3471C30.475 26.9312 30.267 26.5152 29.9549 26.2033L29.8509 26.0993V25.8914C29.8509 25.4754 29.8509 25.0595 29.7469 24.6436L29.0188 22.356C28.9148 21.9401 28.7068 21.5241 28.3948 21.2122L28.2908 21.1082V20.9003C28.2908 20.9003 28.2908 20.7963 28.2908 20.6923V20.4843L28.3948 20.3803C30.371 18.7166 31.7231 17.9888 32.5552 17.9888C33.4913 17.9888 34.8434 18.7166 36.8196 20.3803L36.9236 20.4843V20.6923C36.9236 20.7963 36.9236 20.7963 36.9236 20.9003V21.1082L36.8196 21.2122C36.5076 21.5241 36.2996 21.9401 36.1956 22.356L35.4675 24.6436C35.3635 25.0595 35.2595 25.4754 35.3635 25.8914V26.0993L35.2595 26.2033C34.9474 26.5152 34.7394 26.9312 34.6354 27.3471L33.9073 29.6347C33.6993 30.2586 33.6993 30.9865 34.0113 31.6104C34.2194 32.1303 34.3234 32.7541 34.3234 33.274C34.3234 34.8338 34.0113 35.5616 33.9073 35.9776L33.1793 35.3537C33.2833 35.0417 33.4913 34.4178 33.4913 33.274C33.4913 32.7541 33.3873 32.3382 33.2833 31.9223C32.9712 31.0904 32.9712 30.1546 33.1793 29.3227L33.9073 27.0352C34.0113 26.6192 34.2194 26.2033 34.5314 25.7874L34.6354 25.6834V25.5794C34.6354 25.1635 34.6354 24.6436 34.8434 24.2277L35.5715 21.9401C35.6755 21.6281 35.8835 21.2122 35.9875 20.9003L36.0916 20.6923L35.8835 20.5883C34.3234 19.3405 33.1793 18.7166 32.5552 18.7166C31.9311 18.7166 30.891 19.3405 29.3309 20.5883L29.1229 20.6923L29.2269 20.9003C29.4349 21.2122 29.5389 21.5241 29.7469 21.9401L30.475 24.2277C30.579 24.6436 30.683 25.1635 30.683 25.5794V25.6834L30.787 25.7874C31.099 26.2033 31.3071 26.5152 31.4111 27.0352L32.1392 29.3227C32.4512 30.1546 32.3472 31.0904 32.0351 31.9223C31.8271 32.3382 31.8271 32.8581 31.8271 33.274C31.8271 34.4178 32.0351 35.0417 32.1392 35.3537L31.3071 35.9776Z" fill="#809CFF"/>
<path d="M34.1154 36.6014L32.8673 35.4576L32.9713 35.2496C33.0753 35.0417 33.1793 34.4178 33.1793 33.378C33.1793 32.962 33.0753 32.5461 32.9713 32.1302C32.6592 31.1944 32.5552 30.2585 32.8673 29.3227L33.5953 27.0351C33.6993 26.5152 33.9074 26.0993 34.2194 25.7873C34.2194 25.2674 34.3234 24.8515 34.4274 24.3316L35.1555 22.044C35.2595 21.732 35.3635 21.3161 35.5715 21.0042C33.5953 19.4444 32.8673 19.2365 32.6592 19.2365C32.4512 19.2365 31.7231 19.4444 29.7469 21.0042C29.955 21.3161 30.059 21.6281 30.163 22.044L30.8911 24.3316C30.9951 24.7475 31.0991 25.2674 31.0991 25.7873C31.4111 26.2032 31.6191 26.6192 31.7232 27.0351L32.4512 29.3227C32.7633 30.2585 32.6592 31.2983 32.3472 32.1302C32.2432 32.5461 32.1392 32.962 32.1392 33.378C32.1392 34.5218 32.3472 35.0417 32.3472 35.3536L32.4512 35.5616L31.2031 36.6014L30.9951 36.1855C30.787 35.7695 30.475 34.9377 30.475 33.274C30.475 32.6501 30.579 32.0262 30.7871 31.4023C30.9951 30.8824 30.9951 30.2585 30.8911 29.6346L30.163 27.451C30.059 27.1391 29.851 26.7231 29.6429 26.5152L29.4349 26.2032V25.8913C29.4349 25.4754 29.4349 25.1634 29.3309 24.7475L28.6028 22.4599C28.4988 22.148 28.2908 21.732 28.0828 21.5241L27.8748 21.2121V20.9002V20.7962V20.3803L28.1868 20.1723C30.267 18.4046 31.6191 17.6768 32.6592 17.6768C33.6993 17.6768 35.0515 18.5086 37.1317 20.1723L37.4437 20.3803V20.7962V20.9002V21.3161L37.2357 21.6281C37.0277 21.94 36.8197 22.2519 36.7156 22.5639L35.9876 24.8515C35.8836 25.2674 35.8836 25.5793 35.8836 25.9953V26.3072L35.6755 26.6192C35.4675 26.9311 35.2595 27.2431 35.1555 27.555L34.4274 29.7386C34.2194 30.3625 34.2194 30.9864 34.4274 31.5063C34.6354 32.0262 34.7395 32.6501 34.7395 33.378C34.7395 34.9377 34.4274 35.7695 34.2194 36.1855L34.1154 36.6014ZM30.163 25.9953C30.475 26.4112 30.683 26.8271 30.8911 27.243L31.6191 29.4267C31.8272 30.1545 31.8272 30.9864 31.5151 31.7143C31.3071 32.2342 31.2031 32.7541 31.2031 33.274C31.2031 34.3138 31.3071 34.9377 31.4111 35.3536L31.5151 35.2496C31.4111 34.8337 31.3071 34.2098 31.3071 33.274C31.3071 32.7541 31.4111 32.2342 31.6191 31.8182C31.9312 31.0904 31.9312 30.2585 31.7232 29.4267L30.9951 27.1391C30.8911 26.7232 30.683 26.4112 30.475 25.9953L30.371 25.8913V25.6833C30.371 25.1634 30.371 24.7475 30.163 24.3316L29.4349 22.044C29.3309 21.732 29.2269 21.4201 29.0189 21.1081L28.7068 20.5882L29.1229 20.2763C30.6831 18.9245 31.9312 18.3007 32.5552 18.3007C33.2833 18.3007 34.4274 18.9245 36.0916 20.2763L36.5076 20.5882L36.1956 21.1081C35.9876 21.4201 35.8836 21.732 35.7796 22.044L35.0515 24.3316C34.9475 24.7475 34.8435 25.1634 34.8435 25.5794V25.6833L34.7395 25.9953C34.5314 26.3072 34.3234 26.7232 34.2194 27.1391L33.6993 29.4267C33.4913 30.1545 33.4913 31.0904 33.8034 31.8182C34.0114 32.3382 34.1154 32.7541 34.1154 33.274C34.1154 34.2098 34.0114 34.8337 33.9074 35.2496L34.0114 35.3536C34.1154 34.9377 34.2194 34.3138 34.2194 33.274C34.2194 32.7541 34.1154 32.2342 33.9074 31.7143C33.5953 30.9864 33.5953 30.1545 33.8034 29.4267L34.5314 27.243C34.6354 26.8271 34.9475 26.4112 35.2595 25.9953C35.2595 25.4754 35.2595 25.0594 35.3635 24.5395L36.0916 22.252C36.1956 21.836 36.5076 21.4201 36.8197 21.0042V20.9002C36.8197 20.7962 36.8197 20.7962 36.8197 20.6922C34.9475 19.1325 33.5953 18.3007 32.7633 18.3007C31.9312 18.3007 30.683 19.0285 28.8109 20.5882V20.6922C28.8109 20.7962 28.8109 20.7962 28.8109 20.9002C29.1229 21.3161 29.3309 21.732 29.5389 22.148L30.267 24.4356C30.163 25.0594 30.267 25.4754 30.163 25.9953Z" fill="#809CFF"/>
<path d="M34.1154 36.6014L32.8673 35.4576L32.9713 35.2496C33.0753 35.0417 33.1793 34.4178 33.1793 33.378C33.1793 32.962 33.0753 32.5461 32.9713 32.1302C32.6592 31.1944 32.5552 30.2585 32.8673 29.3227L33.5953 27.0351C33.6993 26.5152 33.9074 26.0993 34.2194 25.7873C34.2194 25.2674 34.3234 24.8515 34.4274 24.3316L35.1555 22.044C35.2595 21.732 35.3635 21.3161 35.5715 21.0042C33.5953 19.4444 32.8673 19.2365 32.6592 19.2365C32.4512 19.2365 31.7231 19.4444 29.7469 21.0042C29.955 21.3161 30.059 21.6281 30.163 22.044L30.8911 24.3316C30.9951 24.7475 31.0991 25.2674 31.0991 25.7873C31.4111 26.2032 31.6191 26.6192 31.7232 27.0351L32.4512 29.3227C32.7633 30.2585 32.6592 31.2983 32.3472 32.1302C32.2432 32.5461 32.1392 32.962 32.1392 33.378C32.1392 34.5218 32.3472 35.0417 32.3472 35.3536L32.4512 35.5616L31.2031 36.6014L30.9951 36.1855C30.787 35.7695 30.475 34.9377 30.475 33.274C30.475 32.6501 30.579 32.0262 30.7871 31.4023C30.9951 30.8824 30.9951 30.2585 30.8911 29.6346L30.163 27.451C30.059 27.1391 29.851 26.7231 29.6429 26.5152L29.4349 26.2032V25.8913C29.4349 25.4754 29.4349 25.1634 29.3309 24.7475L28.6028 22.4599C28.4988 22.148 28.2908 21.732 28.0828 21.5241L27.8748 21.2121V20.9002V20.7962V20.3803L28.1868 20.1723C30.267 18.4046 31.6191 17.6768 32.6592 17.6768C33.6993 17.6768 35.0515 18.5086 37.1317 20.1723L37.4437 20.3803V20.7962V20.9002V21.3161L37.2357 21.6281C37.0277 21.94 36.8197 22.2519 36.7156 22.5639L35.9876 24.8515C35.8836 25.2674 35.8836 25.5793 35.8836 25.9953V26.3072L35.6755 26.6192C35.4675 26.9311 35.2595 27.2431 35.1555 27.555L34.4274 29.7386C34.2194 30.3625 34.2194 30.9864 34.4274 31.5063C34.6354 32.0262 34.7395 32.6501 34.7395 33.378C34.7395 34.9377 34.4274 35.7695 34.2194 36.1855L34.1154 36.6014ZM30.163 25.9953C30.475 26.4112 30.683 26.8271 30.8911 27.243L31.6191 29.4267C31.8272 30.1545 31.8272 30.9864 31.5151 31.7143C31.3071 32.2342 31.2031 32.7541 31.2031 33.274C31.2031 34.3138 31.3071 34.9377 31.4111 35.3536L31.5151 35.2496C31.4111 34.8337 31.3071 34.2098 31.3071 33.274C31.3071 32.7541 31.4111 32.2342 31.6191 31.8182C31.9312 31.0904 31.9312 30.2585 31.7232 29.4267L30.9951 27.1391C30.8911 26.7232 30.683 26.4112 30.475 25.9953L30.371 25.8913V25.6833C30.371 25.1634 30.371 24.7475 30.163 24.3316L29.4349 22.044C29.3309 21.732 29.2269 21.4201 29.0189 21.1081L28.7068 20.5882L29.1229 20.2763C30.6831 18.9245 31.9312 18.3007 32.5552 18.3007C33.2833 18.3007 34.4274 18.9245 36.0916 20.2763L36.5076 20.5882L36.1956 21.1081C35.9876 21.4201 35.8836 21.732 35.7796 22.044L35.0515 24.3316C34.9475 24.7475 34.8435 25.1634 34.8435 25.5794V25.6833L34.7395 25.9953C34.5314 26.3072 34.3234 26.7232 34.2194 27.1391L33.6993 29.4267C33.4913 30.1545 33.4913 31.0904 33.8034 31.8182C34.0114 32.3382 34.1154 32.7541 34.1154 33.274C34.1154 34.2098 34.0114 34.8337 33.9074 35.2496L34.0114 35.3536C34.1154 34.9377 34.2194 34.3138 34.2194 33.274C34.2194 32.7541 34.1154 32.2342 33.9074 31.7143C33.5953 30.9864 33.5953 30.1545 33.8034 29.4267L34.5314 27.243C34.6354 26.8271 34.9475 26.4112 35.2595 25.9953C35.2595 25.4754 35.2595 25.0594 35.3635 24.5395L36.0916 22.252C36.1956 21.836 36.5076 21.4201 36.8197 21.0042V20.9002C36.8197 20.7962 36.8197 20.7962 36.8197 20.6922C34.9475 19.1325 33.5953 18.3007 32.7633 18.3007C31.9312 18.3007 30.683 19.0285 28.8109 20.5882V20.6922C28.8109 20.7962 28.8109 20.7962 28.8109 20.9002C29.1229 21.3161 29.3309 21.732 29.5389 22.148L30.267 24.4356C30.163 25.0594 30.267 25.4754 30.163 25.9953Z" fill="#809CFF"/>
<path d="M32.2432 64.4685C14.4574 64.4685 0 50.0151 0 32.2343C0 14.4534 14.4574 0 32.2432 0C50.029 0 64.4865 14.4534 64.4865 32.2343C64.4865 50.0151 50.029 64.4685 32.2432 64.4685ZM32.2432 2.07963C15.6016 2.07963 1.97619 15.5972 1.97619 32.3382C1.97619 48.9753 15.4976 62.5969 32.2432 62.5969C48.8849 62.5969 62.5103 49.0793 62.5103 32.3382C62.5103 15.5972 48.9889 2.07963 32.2432 2.07963Z" fill="#809CFF"/>
</svg>
