<svg width="24" height="23" viewBox="0 0 24 23" fill="none" xmlns="http://www.w3.org/2000/svg">
<path d="M12.4144 0.00359758C14.083 0.00359758 15.7516 -0.00449698 17.4202 0.00359758C19.6666 0.0116921 21.4573 0.918283 22.7596 2.73146C23.5329 3.79995 23.891 5.02222 23.891 6.33354C23.8991 9.73326 23.9317 13.133 23.8829 16.5327C23.8422 19.2444 22.5154 21.179 20.0573 22.3365C19.2597 22.7088 18.3887 22.8545 17.5097 22.8545C14.1074 22.8545 10.7051 22.8869 7.30283 22.8464C4.56798 22.806 2.60637 21.4947 1.44243 19.042C1.05988 18.2406 0.921509 17.3745 0.921509 16.4841C0.921509 13.1168 0.888951 9.74135 0.929649 6.37402C0.954067 3.63806 2.27266 1.68727 4.74705 0.521649C5.56099 0.141205 6.44005 0.00359758 7.34353 0.00359758C9.03653 0.00359758 10.7214 0.00359758 12.4144 0.00359758ZM12.3981 2.02724C10.7377 2.02724 9.07723 2.02724 7.41678 2.02724C6.88772 2.02724 6.37493 2.0839 5.87029 2.25389C4.04705 2.90145 2.94823 4.45561 2.94823 6.42258C2.94009 9.75754 2.94009 13.0844 2.95637 16.4194C2.95637 16.9131 3.02962 17.4393 3.18427 17.9088C3.80287 19.7381 5.3982 20.8228 7.38422 20.8309C10.7295 20.839 14.0748 20.839 17.412 20.8228C17.9085 20.8228 18.4376 20.75 18.9097 20.5962C20.741 19.9891 21.848 18.4106 21.848 16.4517C21.8561 13.1087 21.8561 9.77373 21.848 6.43068C21.848 4.92509 21.2457 3.71091 20.0166 2.8205C19.2352 2.26198 18.3562 2.03533 17.4039 2.03533C15.7353 2.02724 14.0667 2.02724 12.3981 2.02724Z" fill="white"/>
<path d="M18.3234 11.4248C18.3234 14.6626 15.6455 17.3257 12.3979 17.3176C9.14208 17.3095 6.4642 14.6464 6.48048 11.4167C6.49676 8.17888 9.15022 5.54815 12.3979 5.54006C15.6455 5.53196 18.3234 8.19507 18.3234 11.4248ZM16.2804 11.4248C16.2804 9.29593 14.5385 7.5637 12.3979 7.57179C10.2572 7.57179 8.51534 9.30403 8.52348 11.4329C8.52348 13.5618 10.2653 15.294 12.406 15.2859C14.5385 15.2859 16.2804 13.5537 16.2804 11.4248Z" fill="white"/>
<path d="M18.568 3.82422C19.3901 3.82422 20.0738 4.50416 20.0656 5.31362C20.0494 6.12307 19.3819 6.78683 18.568 6.78683C17.7459 6.78683 17.0622 6.09879 17.0703 5.29743C17.0866 4.47988 17.754 3.82422 18.568 3.82422Z" fill="white"/>
</svg>
