<svg width="21" height="13" viewBox="0 0 21 13" fill="none" xmlns="http://www.w3.org/2000/svg">
<path d="M19.4193 2.16667H1.3301C0.595327 2.16667 0 1.68178 0 1.08335C0 0.484918 0.595327 0 1.3301 0H19.4193C20.154 0 20.7493 0.484885 20.7493 1.08335C20.7493 1.68181 20.154 2.16667 19.4193 2.16667Z" fill="#809CFF"/>
<path d="M11.7943 7.58317H1.3105C0.586552 7.58317 0 7.09826 0 6.49984C0 5.90141 0.586552 5.4165 1.3105 5.4165H11.7943C12.5182 5.4165 13.1048 5.90138 13.1048 6.49984C13.1048 7.09829 12.5182 7.58317 11.7943 7.58317Z" fill="#809CFF"/>
<path d="M19.4193 13.0002H1.3301C0.595327 13.0002 0 12.5153 0 11.9168C0 11.3184 0.595327 10.8335 1.3301 10.8335H19.4193C20.154 10.8335 20.7493 11.3184 20.7493 11.9168C20.7493 12.5153 20.154 13.0002 19.4193 13.0002Z" fill="#809CFF"/>
</svg>
