<svg width="17" height="17" viewBox="0 0 17 17" fill="none" xmlns="http://www.w3.org/2000/svg">
<path d="M13.7315 15.2636L0.940535 2.47259C0.420969 1.95302 0.342892 1.18918 0.766041 0.766033C1.18919 0.342884 1.95303 0.42096 2.4726 0.940526L15.2636 13.7315C15.7831 14.251 15.8612 15.0149 15.438 15.438C15.0149 15.8612 14.251 15.7831 13.7315 15.2636Z" fill="#809CFF"/>
<path d="M0.940512 13.7317L13.7315 0.940688C14.251 0.421122 15.0149 0.343045 15.438 0.766194C15.8612 1.18934 15.7831 1.95319 15.2635 2.47275L2.47258 15.2637C1.95304 15.7833 1.18922 15.8614 0.766046 15.4382C0.342897 15.015 0.420974 14.2512 0.940512 13.7317Z" fill="#809CFF"/>
</svg>
