<svg width="30" height="30" viewBox="0 0 30 30" fill="none" xmlns="http://www.w3.org/2000/svg">
<circle cx="15" cy="15" r="15" fill="#FEADB1"/>
<g clip-path="url(#clip0_257_1879)">
<path d="M21.926 17.5804C20.9158 17.5804 19.924 17.4224 18.984 17.1117C18.5234 16.9546 17.9572 17.0988 17.6761 17.3875L15.8209 18.788C13.6693 17.6395 12.344 16.3146 11.2111 14.1792L12.5705 12.3722C12.9236 12.0196 13.0503 11.5044 12.8985 11.021C12.5866 10.0761 12.4281 9.08466 12.4281 8.07404C12.4281 7.34396 11.8342 6.75 11.1042 6.75H8.074C7.34396 6.75 6.75 7.34396 6.75 8.074C6.75 16.4422 13.5579 23.25 21.926 23.25C22.6561 23.25 23.25 22.656 23.25 21.926V18.9043C23.25 18.1743 22.656 17.5804 21.926 17.5804Z" fill="white"/>
</g>
<defs>
<clipPath id="clip0_257_1879">
<rect width="16.5" height="16.5" fill="white" transform="translate(6.75 6.75)"/>
</clipPath>
</defs>
</svg>
