<svg width="17" height="16" viewBox="0 0 17 16" fill="none" xmlns="http://www.w3.org/2000/svg">
<path fill-rule="evenodd" clip-rule="evenodd" d="M2.67102 0.246996C1.10875 1.00497 -0.156965 2.82603 0.0158227 4.06735C0.248847 5.74079 2.27118 8.91222 4.5107 11.1162C7.37037 13.9303 11.5552 16.2054 13.467 15.9853C14.978 15.8111 16.9984 13.9743 17 12.7731C17.0007 12.2957 15.5775 10.9752 14.135 10.1147C12.7006 9.25913 12.3733 9.36156 11.5449 10.9246C11.2327 11.5138 10.9469 11.8408 10.6037 12.0015C10.1257 12.2254 10.0855 12.2182 9.25848 11.7597C8.00846 11.0665 6.84468 10.145 5.793 9.01569C4.58872 7.72257 4.11236 6.9222 4.17349 6.29507C4.21579 5.86177 4.3276 5.75433 5.2147 5.29454C6.34933 4.70641 6.83661 4.31638 6.83661 3.99611C6.83661 3.66879 5.84113 1.93456 5.22816 1.1941C4.63625 0.478805 3.92627 -0.00424016 3.47352 2.80595e-05C3.3091 0.00149986 2.94798 0.112621 2.67102 0.246996Z" fill="white"/>
</svg>
