<svg width="24" height="25" viewBox="0 0 24 25" fill="none" xmlns="http://www.w3.org/2000/svg">
<path d="M8.64036 17.8515C8.24228 18.2892 7.85267 18.7185 7.46306 19.1479C5.8538 20.9325 4.24455 22.7087 2.62682 24.4933C2.22028 24.9395 1.70362 25.0994 1.11921 24.9395C0.543265 24.788 0.179063 24.4007 0.0435475 23.8283C-0.0750285 23.3401 0.0520181 22.8939 0.382338 22.5235C1.33095 21.4712 2.27956 20.419 3.23665 19.3667C4.26149 18.2303 5.2948 17.0939 6.31964 15.9574C6.34505 15.9322 6.37046 15.8985 6.39587 15.8732C4.54946 13.5162 3.82106 10.8645 4.38007 7.91819C4.8459 5.44329 6.13331 3.43979 8.15758 1.93296C12.096 -0.996519 17.5251 -0.550362 20.9893 2.95996C24.3772 6.38611 24.6821 11.8326 21.7092 15.6544C18.7787 19.4425 13.1971 20.7641 8.64036 17.8515ZM13.9848 2.99364C10.2666 2.99364 7.2005 6.0073 7.20897 9.68598C7.21744 13.7098 10.5461 16.4036 13.8916 16.4541C17.7284 16.5046 20.7521 13.4236 20.7521 9.73649C20.7606 6.01571 17.7199 2.99364 13.9848 2.99364Z" fill="white"/>
</svg>
