<svg xmlns="http://www.w3.org/2000/svg" width="23" height="21" viewBox="0 0 23 21" fill="none">
  <path d="M10.6044 0.802445C10.9721 0.0623889 12.0279 0.062389 12.3956 0.802445L14.9559 5.95565C15.1015 6.24871 15.3813 6.45199 15.705 6.49991L21.3972 7.34255C22.2147 7.46357 22.5409 8.4676 21.9507 9.04599L17.8409 13.0735C17.6072 13.3025 17.5003 13.6314 17.5548 13.9541L18.5124 19.6281C18.6499 20.443 17.7958 21.0635 17.0633 20.6809L11.963 18.0168C11.6729 17.8653 11.3271 17.8653 11.037 18.0168L5.93665 20.6809C5.20418 21.0635 4.3501 20.443 4.48762 19.6281L5.4452 13.9541C5.49966 13.6314 5.39279 13.3025 5.15906 13.0735L1.04928 9.04599C0.459071 8.4676 0.785301 7.46357 1.60276 7.34255L7.29495 6.49991C7.61867 6.45199 7.89845 6.24871 8.04406 5.95565L10.6044 0.802445Z" fill="#F9DD74"/>
</svg>
