<svg class="reviews-grid__item-header__stars" xmlns="http://www.w3.org/2000/svg" width="22" height="22" viewBox="0 0 22 22" fill="none">
                            <path fill-rule="evenodd" clip-rule="evenodd" d="M6.24044 2.46898L5.13544 4.72315L2.82112 4.97235C1.5487 5.10954 0.428896 5.34881 0.333376 5.50443C0.237856 5.66005 0.965709 6.49663 1.95122 7.3637L3.74283 8.94009L3.36357 11.0035C2.78411 14.1567 2.74181 14.1134 5.20453 12.8922L7.4251 11.7912L9.61042 12.9007C11.7887 14.0064 11.7961 14.0074 11.7806 13.2074C11.7721 12.766 11.6244 11.687 11.4524 10.8096C11.1412 9.22155 11.1475 9.20631 12.9124 7.3956C13.8873 6.3956 14.545 5.49025 14.3737 5.38355C14.2028 5.27721 13.0974 5.08047 11.9173 4.94612L9.7722 4.70223L8.76766 2.58844C8.21534 1.42574 7.66936 0.416164 7.55445 0.344913C7.43955 0.273662 6.84845 1.22935 6.24044 2.46898ZM23.1689 2.44913L22.0541 4.72315L19.7447" fill="#F9DD74"></path>
                        </svg>