<svg width="25" height="25" viewBox="0 0 25 25" fill="none" xmlns="http://www.w3.org/2000/svg">
<path d="M12.5456 0C15.8759 0 18.9781 1.27273 21.3504 3.63636C23.677 6 25 9.09091 25 12.4091C25 19.2273 19.4343 24.8182 12.5456 24.8182C10.4471 24.8182 8.43978 24.3182 6.61496 23.3182L0 25L1.7792 18.5909C0.684306 16.7273 0.136861 14.5909 0.136861 12.4091C0.0912405 5.54545 5.70255 0 12.5456 0ZM12.5456 22.6818C18.2482 22.6818 22.9015 18.0455 22.9015 12.3636C22.9015 9.59091 21.8066 7.04545 19.8905 5.09091C17.9288 3.13636 15.3285 2.09091 12.5912 2.09091C6.88869 2.09091 2.2354 6.72727 2.2354 12.4091C2.2354 14.3636 2.78285 16.2273 3.83212 17.9091L4.06022 18.3182L3.01095 22.1364L6.93431 21.1364L7.29927 21.3636C8.85036 22.1818 10.6752 22.6818 12.5456 22.6818ZM16.104 13.9545C16.3777 14.0455 17.9288 14.8182 18.2482 14.9545C18.2938 15 18.385 15 18.4307 15.0455C18.6588 15.1364 18.7956 15.2273 18.8412 15.3182C18.9325 15.4545 18.9325 16.0455 18.6588 16.7727C18.385 17.5 17.1533 18.1364 16.5602 18.2273C16.0128 18.3182 15.3285 18.3182 14.5985 18.0909C14.1423 17.9545 13.5493 17.7727 12.8193 17.4545C9.89963 16.1818 7.93795 13.4091 7.57299 12.8636C7.52737 12.8182 7.52737 12.8182 7.52737 12.7727C7.34489 12.5455 6.25 11.0909 6.25 9.59091C6.25 8.18182 6.93431 7.40909 7.25365 7.09091C7.25365 7.04545 7.29927 7.04545 7.29927 7.04545C7.57299 6.72727 7.93796 6.63636 8.12044 6.63636C8.30292 6.63636 8.53102 6.63636 8.7135 6.63636C8.7135 6.63636 8.75912 6.63636 8.80474 6.63636C8.98723 6.63636 9.21533 6.63636 9.44343 7.18182C9.53467 7.40909 9.67153 7.68182 9.80839 8C10.0821 8.63636 10.3558 9.36364 10.4015 9.45455C10.4927 9.59091 10.5383 9.77273 10.4471 10C10.4471 10.0455 10.4015 10.0455 10.4015 10.0909C10.3102 10.2273 10.2646 10.3636 10.1277 10.5C10.0821 10.5455 10.0365 10.6364 9.99088 10.6818C9.89964 10.8182 9.76277 10.9545 9.67153 11.0455C9.53467 11.1818 9.35219 11.3636 9.53467 11.6818C9.71715 12 10.3558 13 11.2682 13.8182C12.2719 14.6818 13.1387 15.0909 13.5493 15.2727C13.6405 15.3182 13.6861 15.3182 13.7774 15.3636C14.0967 15.5 14.2792 15.5 14.4617 15.2727C14.6442 15.0455 15.2372 14.3636 15.4653 14.0455C15.6022 13.8182 15.7847 13.8636 16.104 13.9545Z" fill="white"/>
</svg>
